<?xml version="1.0" standalone="no"?>
<!DOCTYPE svg PUBLIC "-//W3C//DTD SVG 1.1//EN" "http://www.w3.org/Graphics/SVG/1.1/DTD/svg11.dtd" >
<svg xmlns="http://www.w3.org/2000/svg">
<metadata>
Created by FontForge 20120731 at Sun Apr 30 00:59:35 2017
 By admin
</metadata>
<defs>
<font id="iconfont" horiz-adv-x="1024" >
  <font-face 
    font-family="iconfont"
    font-weight="500"
    font-stretch="normal"
    units-per-em="1024"
    panose-1="2 0 6 3 0 0 0 0 0 0"
    ascent="896"
    descent="-128"
    x-height="792"
    bbox="0 -211.51 1307 896.29"
    underline-thickness="0"
    underline-position="0"
    unicode-range="U+0078-E7AA"
  />
<missing-glyph 
 />
    <glyph glyph-name=".notdef" 
 />
    <glyph glyph-name=".notdef" 
 />
    <glyph glyph-name=".null" horiz-adv-x="0" 
 />
    <glyph glyph-name="nonmarkingreturn" horiz-adv-x="341" 
 />
    <glyph glyph-name="x" unicode="x" horiz-adv-x="1001" 
d="M281 543q-27 -1 -53 -1h-83q-18 0 -36.5 -6t-32.5 -18.5t-23 -32t-9 -45.5v-76h912v41q0 16 -0.5 30t-0.5 18q0 13 -5 29t-17 29.5t-31.5 22.5t-49.5 9h-133v-97h-438v97zM955 310v-52q0 -23 0.5 -52t0.5 -58t-10.5 -47.5t-26 -30t-33 -16t-31.5 -4.5q-14 -1 -29.5 -0.5
t-29.5 0.5h-32l-45 128h-439l-44 -128h-29h-34q-20 0 -45 1q-25 0 -41 9.5t-25.5 23t-13.5 29.5t-4 30v167h911zM163 247q-12 0 -21 -8.5t-9 -21.5t9 -21.5t21 -8.5q13 0 22 8.5t9 21.5t-9 21.5t-22 8.5zM316 123q-8 -26 -14 -48q-5 -19 -10.5 -37t-7.5 -25t-3 -15t1 -14.5
t9.5 -10.5t21.5 -4h37h67h81h80h64h36q23 0 34 12t2 38q-5 13 -9.5 30.5t-9.5 34.5q-5 19 -11 39h-368zM336 498v228q0 11 2.5 23t10 21.5t20.5 15.5t34 6h188q31 0 51.5 -14.5t20.5 -52.5v-227h-327z" />
    <glyph glyph-name="sousuo" unicode="&#xe6b9;" 
d="M407 812q-109 0 -201.5 -54t-146 -146.5t-53.5 -201.5t53.5 -201.5t146 -146.5t201.5 -54t201.5 54t146.5 146.5t54 201.5t-54 201.5t-146.5 146.5t-201.5 54zM407 53q-97 0 -179 47.5t-129.5 130t-47.5 179.5t47.5 179t129.5 130t179 48t179.5 -48t130 -130t47.5 -179
t-47.5 -179.5t-130 -130t-179.5 -47.5zM995 -42l-209 209q-24 24 -59 23.5t-60 -26.5l-25 -24q-25 -25 -26 -60t23 -59l209 -209q25 -24 59.5 -23.5t59.5 25.5l25 25q25 25 26 60t-23 59zM954 -134l-14 -14q-14 -14 -37.5 -10t-42.5 23l-167 167q-19 20 -23 43.5t10 37.5
l14 13q14 14 37.5 10.5t42.5 -22.5l167 -168q20 -19 23.5 -42.5t-10.5 -37.5z" />
    <glyph glyph-name="77" unicode="&#xe654;" 
d="M977 32l-140 139q-35 35 -83 24l-67 67q90 107 90 246q0 104 -51 191.5t-138.5 138.5t-191 51t-191 -51t-138.5 -138.5t-51 -191t51 -191t138.5 -138.5t191.5 -51q121 0 220 70l70 -70q-11 -48 24 -83l140 -140q26 -26 63 -26t63 26t26 63t-26 64zM106 508.5
q0 120.5 85 205.5t205.5 85t205.5 -85t85 -205.5t-85 -206t-205.5 -85.5t-205.5 85.5t-85 206z" />
    <glyph glyph-name="sou-suo" unicode="&#xe63b;" 
d="M390 777q-73 0 -136.5 -36.5t-100.5 -98.5q-8 -14 5 -22q3 -2 8 -2q9 0 13 8q33 55 90 87.5t121 32.5q7 0 11.5 4.5t4.5 11t-4.5 11t-11.5 4.5zM140 575.5q-6 1.5 -11.5 -2t-7.5 -9.5q-7 -31 -7 -54q0 -7 4.5 -11.5t11 -4.5t11 4.5t4.5 11.5q0 19 6 47q2 6 -1.5 11.5
t-9.5 7zM986 47l-250 250q-8 7 -18 13q52 89 52 191q0 103 -51 190t-138.5 138t-190.5 51t-190 -51t-138 -138t-51 -190t51 -190.5t138 -138.5t190 -51q109 0 203 59q5 -7 12 -15l250 -250q27 -27 65.5 -27t65.5 27t27 65.5t-27 66.5zM390 183q-86 0 -159 42.5t-115.5 116
t-42.5 159.5t42.5 159t115.5 115.5t159 42.5t159 -42.5t116 -115.5t43 -159t-42.5 -159.5t-116 -116t-159.5 -42.5zM942 -41q-9 -9 -22 -9t-22 9l-249 250l-3 3l-1 1q0 6 19 24q16 17 24 19q2 -1 4 -3l250 -250q9 -9 9 -22t-9 -22z" />
    <glyph glyph-name="bianji" unicode="&#xe60a;" 
d="M625 69h-494q-8 0 -13.5 -5.5t-5.5 -13.5t5.5 -13.5t13.5 -5.5h494q8 0 13.5 5.5t5.5 13.5t-5.5 13.5t-13.5 5.5zM421 223q8 0 14 6l107 107q6 6 6 14t-5.5 13.5t-13.5 5.5t-13 -6l-108 -107q-6 -6 -6 -14t6 -13.5t13 -5.5v0zM901.5 733q-5.5 6 -13.5 6t-13 -6l-294 -293
q-5 -6 -5 -14t5.5 -13.5t13.5 -5.5t13 6l294 293q5 6 5 13.5t-5.5 13.5z" />
    <glyph glyph-name="guanbi" unicode="&#xe60b;" 
d="M846 528q-28 66 -79 117.5t-118 79.5q-68 29 -144 29q-111 0 -203 -61q-11 -7 -3.5 -19t19.5 -4q85 56 187 56q93 0 172 -46t124.5 -124.5t45.5 -171.5t-45.5 -172t-124.5 -124.5t-172 -45.5t-171.5 45.5t-124.5 124.5t-46 172q0 103 56 188q8 12 -3.5 19.5t-19.5 -4.5
q-61 -92 -61 -203q0 -75 29 -144q28 -67 79.5 -118t117.5 -79q69 -29 144.5 -29t143.5 29q67 28 118 79t79 118q29 69 29 144t-29 144zM401 271q4 -4 9.5 -4t9.5 4l89 89l89 -89q4 -4 9.5 -4t10.5 4q9 10 0 20l-89 88l89 89q9 10 -0.5 20t-19.5 0l-89 -89l-89 89
q-10 10 -19.5 0t0.5 -20l88 -89l-88 -88q-10 -10 0 -20z" />
    <glyph glyph-name="xuanze" unicode="&#xe612;" 
d="M851 530q-28 66 -79.5 117.5t-117.5 79.5q-69 29 -144 29q-111 0 -203 -61q-12 -7 -4.5 -19t19.5 -4q85 56 188 56q93 0 171.5 -46t124.5 -124.5t46 -171.5t-46 -172t-124.5 -124.5t-171.5 -45.5t-172 45.5t-124.5 124.5t-45.5 172q0 103 56 188q8 12 -4 19.5t-19 -4.5
q-61 -92 -61 -203q0 -75 29 -144q28 -67 79 -118t118 -79q68 -29 143.5 -29t144.5 29q66 28 117.5 79t79.5 118q29 69 29 144t-29 144zM478 241q6 0 10 4l197 197q10 10 0 20t-19 0l-188 -187l-90 90q-10 10 -20 0t0 -20l100 -100q5 -4 10 -4v0z" />
    <glyph glyph-name="dianhua" unicode="&#xe607;" 
d="M962 726h-898q-9 0 -15.5 -6.5t-6.5 -15.5v-704q0 -9 6.5 -15.5t15.5 -6.5h898q9 0 15.5 6.5t6.5 15.5v439h-1l0.5 1l0.5 1q0 10 -6.5 16.5t-16 6.5t-16 -6.5t-6.5 -16.5l0.5 -1l0.5 -1h-1v125v0q0 -9 6.5 -15.5t16 -6.5t16 6.5t6.5 15.5v0v140q0 9 -6.5 15.5t-15.5 6.5z
M87 26v0v1v654v0h852v0v-654v-1h-852zM331 820h-195q-10 0 -16.5 -6.5t-6.5 -15.5v-700q0 -9 6.5 -15.5t16.5 -6.5h75v-88h45v88h75q9 0 16 6.5t7 15.5v700q0 9 -7 15.5t-16 6.5zM159 119h-1v656h1h149h1v-656h-1h-149v0zM408 635h485v-166h-485v166zM430 612h441v-120h-441
v120zM408 444h138v-50h-138v50zM579 444h138v-50h-138v50zM756 444h137v-50h-137v50zM543 334h60v-60h-60v60zM639 334h60v-60h-60v60zM735 334h60v-60h-60v60zM831 334h60v-60h-60v60zM543 241h60v-61h-60v61zM639 241h60v-61h-60v61zM735 241h60v-61h-60v61zM831 241h60
v-61h-60v61zM543 147h60v-60h-60v60zM639 147h60v-60h-60v60zM735 147h60v-60h-60v60zM831 147h60v-60h-60v60zM194 150q0 -5 -3 -8t-8 -3h-1q-4 0 -7 3t-3 8v596q0 5 3 8t7 3h1q5 0 8 -3t3 -8v-596z" />
    <glyph glyph-name="shouji" unicode="&#xe603;" 
d="M229 -35q0 -14 7 -26l13 -12q1 -2 7 -4q9 -4 18 -4v0h454q7 0 26 8q2 1 6 5q14 14 14 33v0v68h-545v-68zM728 851h-454q-19 0 -32 -13.5t-13 -32.5v-68h545v68q0 19 -13.5 32.5t-32.5 13.5zM229 78h545v614h-545v-614zM501 -24zM467 -24q0 -14 10 -24t24 -10t24 10t10 24
t-10 24t-24 10t-24 -10t-10 -24zM297 487h409v-341h-409v341zM342 623h318v-45h-318v45zM319 555h364v-45h-364v45zM410 623h-22v-22h22v22zM365 623h-23v-22h23v22zM456 623h-23v-22h23v22zM433 578v23h-23v-23h23zM388 578v23h-23v-23h23zM501 623h-23v-22h23v22zM478 578
v23h-22v-23h22zM547 623h-23v-22h23v22zM524 578v23h-23v-23h23zM592 623h-23v-22h23v22zM569 578v23h-22v-23h22zM637 623h-22v-22h22v22zM615 578v23h-23v-23h23zM660 578v23h-23v-23h23zM388 555h-23v-22h23v22v0zM342 555h-23v-22h23v22zM433 555h-23v-22h23v22z
M410 510v23h-22v-23h22zM365 510v23h-23v-23h23zM478 555h-22v-22h22v22zM456 510v23h-23v-23h23zM524 555h-23v-22h23v22zM501 510v23h-23v-23h23zM569 555h-22v-22h22v22zM547 510v23h-23v-23h23zM615 555h-23v-22h23v22zM592 510v23h-23v-23h23zM637 510v23h-22v-23h22z
M660 555h-23v-22h23v22zM683 510v23h-23v-23h23zM342 487v-23h23v23h-23zM297 487v-23h22v23h-22zM388 487v-23h22v23h-22zM365 442h23v22h-23v-22zM319 442h23v22h-23v-22zM433 487v-23h23v23h-23zM410 442h23v22h-23v-22zM478 487v-23h23v23h-23zM456 442h22v22h-22v-22z
M524 487v-23h23v23h-23zM501 442h23v22h-23v-22zM569 487v-23h23v23h-23zM547 442h22v22h-22v-22zM592 442h23v22h-23v-22zM615 487v-23h22v23h-22zM637 442h23v22h-23v-22zM660 487v-23h23v23h-23zM683 464v-22h23v22h-23zM455.5 782q4.5 0 8 3.5t3.5 8t-3.5 8t-8 3.5
t-8 -3.5t-3.5 -8t3.5 -8t8 -3.5zM490 782h57q4 0 7.5 3.5t3.5 8t-3.5 8t-7.5 3.5h-57q-5 0 -8.5 -3.5t-3.5 -8t3.5 -8t8.5 -3.5zM524 373h-159v-22h159v22v0zM365 328v-23h272v23h-272zM365 260h227v23h-227v-23zM728 896h-454q-38 0 -64.5 -26.5t-26.5 -64.5v-840
q0 -38 26.5 -64.5t64.5 -26.5h454q38 0 64.5 26.5t26.5 64.5v840q0 38 -26.5 64.5t-64.5 26.5zM774 -35q0 -19 -13.5 -32.5t-32.5 -13.5h-454q-19 0 -32 13.5t-13 32.5v68h545v-68zM774 78h-545v614h545v-614zM774 737h-545v68q0 19 13 32.5t32 13.5h454v0q19 0 32.5 -13.5
t13.5 -32.5v-68z" />
    <glyph glyph-name="dizhi" unicode="&#xe620;" 
d="M39 74l131 281h21l507 -2l106 20l61 -14l57 -154l59 -110l-11 -60l-889 -9zM526 217l118 177q0 1 34.5 57t34.5 58v102l-46 89l-95 58h-92l-87 -46l-69 -88l9 -114l21 -86l32 -66l62 -54l57 -72zM331 439q38 -59 159 -230l1 -1q12 -16 30 -16q21 0 31 17q156 225 162 233
l1 1q33 55 33 118q0 94 -66.5 160.5t-160.5 66.5t-160.5 -66.5t-66.5 -160.5q0 -66 37 -122zM520 730q70 0 119.5 -49.5t49.5 -119.5q0 -45 -24 -88q-3 -4 -25.5 -37t-60.5 -87t-58 -84q-14 21 -51.5 74.5t-63 90t-29.5 41.5q-27 42 -27 89q1 70 50.5 120t119.5 50zM520 434
q52 0 89 37t37 89t-37 89t-89 37t-89 -37t-37 -89t37 -89t89 -37zM520 629v0q28 0 48 -20t20 -48v0q0 -29 -20 -48.5t-48 -19.5t-48 20t-20 48t20 48t48 20zM1001 140l-140 272h-117l-46 -59h127l129 -246l2 -2q11 -14 2 -31q-8 -16 -28 -16h-835q-20 0 -28 16q-8 17 3 32
l1 1l127 247h144l-48 59h-132l-140 -273q-15 -21 -16.5 -45t10.5 -46q25 -48 80 -48h835q26 0 47 13t33 35q21 49 -10 91zM521 562zM452 562v0q0 -29 20 -49t49 -20t49 20t20 49v0v0q0 28 -20 48.5t-49 20.5t-49 -20.5t-20 -48.5v0z" />
    <glyph glyph-name="dizhi1" unicode="&#xe61e;" 
d="M258 184q-188 -36 -188 -111q0 -40 59.5 -70.5t159 -46.5t223.5 -16t223.5 16t159 46.5t59.5 70.5q0 78 -201 114q-14 2 -24.5 -4.5t-13 -19t5 -22t20.5 -11.5q45 -8 80 -19t52.5 -21t17.5 -17q0 -4 -19 -16q-29 -17 -78 -30q-113 -29 -280 -29q-170 0 -281 29
q-49 13 -78 30q-20 12 -20 16q0 6 16 15.5t48 20t72 17.5q14 3 21 13.5t4 22.5q-2 12 -13 19t-25 3zM512 -64q-190 0 -314 36q-132 38 -132 101q0 41 52 71q48 27 139 44q5 1 9 1q13 0 22.5 -7.5t11.5 -18.5q3 -13 -4 -25q-8 -13 -24 -15q-59 -12 -99 -28q-33 -14 -34 -22
q2 -3 18 -13q29 -16 77 -29q111 -29 280 -29q166 0 279 29q49 13 77 29q15 11 17 13q-1 9 -38 24q-43 17 -108 29q-16 2 -25 14q-7 11 -5 24q3 12 13 20t23 8q3 0 7 -1q204 -36 204 -118q0 -63 -132 -101q-124 -36 -314 -36zM266 181q-3 0 -7 -1v0q-185 -35 -185 -107
q0 -28 33 -52q32 -24 93 -42q123 -35 312 -35t312 35q61 18 93 42q33 24 33 52q0 38 -52 66q-50 27 -146 44q-2 1 -5 1q-11 0 -18.5 -6t-9.5 -15q-2 -10 4 -18q6 -10 19 -12q66 -11 110 -29q43 -17 43 -31q0 -6 -20 -19l-1 -1q-29 -17 -79 -29q-114 -30 -281 -30
q-170 0 -282 30q-49 12 -79 29q-22 14 -22 20q0 13 39 29q40 17 100 28q13 3 20 13q5 8 2 18v0v1q-1 8 -8.5 13.5t-17.5 5.5zM514 828q-143 0 -230.5 -91t-87.5 -226q0 -50 28.5 -113.5t70 -119.5t86.5 -105t81.5 -77.5t51 -28.5t51 28.5t81.5 77.5t86.5 105t70 119.5
t28.5 113.5q0 135 -87 226t-230 91zM513.5 63q-20.5 0 -73.5 46.5t-106 110.5q-62 75 -98 145q-44 83 -44 146q0 137 87 227q43 45 101 69q61 25 133.5 25t133.5 -25q58 -24 101 -69q87 -90 87 -227q0 -63 -44 -146q-36 -70 -98 -145q-53 -64 -106 -110.5t-73.5 -46.5z
M513.5 824q-138.5 0 -226 -87.5t-87.5 -225.5q0 -116 140 -286q53 -63 105 -108.5t69 -45.5t68.5 45.5t104.5 108.5q140 170 140 286q0 138 -87.5 225.5t-226 87.5zM513.5 638q52.5 0 89.5 -37.5t37 -90t-37 -89.5t-89.5 -37t-89.5 37t-37 89.5t37 90t89.5 37.5z" />
    <glyph glyph-name="wodegongzuo" unicode="&#xe62e;" 
d="M99 614h840v-237h-840v237zM135 374h780v-367h-780v367zM254 453h113v-158h-113v158zM672 453h112v-158h-112v158zM932 642h-247q0 34 -24.5 58t-58.5 24h-164q-35 0 -59 -24t-24 -58h-247q-17 0 -29 -12t-12 -29v0v-206v0q0 -17 12 -29t29 -12v-329q0 -18 12 -30t29 -12
h741q17 0 29.5 12t12.5 30v329q17 0 29 12t12 29v206q0 17 -12 29t-29 12zM438 683h164q17 0 29 -12t12 -29h-247q0 17 12.5 29t29.5 12zM890 25h-741v329h83v-41q0 -17 12 -29t29 -12v0h82q17 0 29 12t12 29v41h247v-41q0 -17 12.5 -29t29.5 -12h82q17 0 29 12t12 29v41h82
v-329zM273 313v123h82v-123h-82zM685 313v123h82v-123h-82zM932 395h-124v41q0 17 -12 29t-29 12h-82q-17 0 -29.5 -12t-12.5 -29v-41h-247v41v0q0 17 -12 29t-29 12h-82v0q-17 0 -29 -12t-12 -29v0v-41h-124v206h824v-206z" />
    <glyph glyph-name="dingdan" unicode="&#xe72c;" 
d="M747 -78h-426q-45 0 -77 32.5t-32 78.5v609q0 46 32 79t77 33h487q45 0 77 -33t32 -79v-546zM793 859h-562q-57 0 -97 -40t-40 -97v-678q0 -56 40 -96t97 -40h491q5 0 9 4l194 194q4 3 4 8v608q0 57 -40 97t-96 40zM120 46v676q0 46 33 79t79 33h561q47 0 79.5 -33
t32.5 -79v-580h-154q-24 0 -40.5 -16.5t-16.5 -38.5v-153h-463q-46 0 -78.5 33t-32.5 79zM719 -63v150q0 12 9.5 21t22.5 9h152zM336 568h353q13 0 13 12.5t-13 12.5h-353q-13 0 -13 -12.5t13 -12.5zM336 365h353q13 0 13 12.5t-13 12.5h-353q-13 0 -13 -12.5t13 -12.5z
M500 200h-164q-13 0 -13 -12.5t13 -12.5h164q12 0 12 12.5t-12 12.5z" />
    <glyph glyph-name="daoqi" unicode="&#xe72e;" 
d="M556 340zM106 340.5q0 -91.5 35.5 -175t96 -143.5t143.5 -95.5t174.5 -35.5t175 35.5t143.5 95.5t95.5 143.5t35.5 175t-35.5 174.5t-95.5 143.5t-143.5 96t-175 35.5t-174.5 -35.5t-143.5 -96t-96 -143.5t-35.5 -174.5zM493.5 877q-96.5 0 -184.5 -37.5t-151.5 -101
t-101 -151.5t-37.5 -184.5t37.5 -184.5t101 -151.5t151.5 -101t184 -37.5q138 0 254 73q10 6 4 17q-7 11 -18 4q-109 -69 -240 -69q-91 0 -174.5 35.5t-143.5 96t-95.5 143.5t-35.5 174.5t35.5 175t95.5 143.5t143.5 95.5t175 35.5t174.5 -35.5t143.5 -95.5t96 -143.5
t35.5 -174.5q0 -131 -69 -240q-7 -11 4 -18q11 -6 17 4q74 119 74 254q0 96 -38 184t-101.5 151.5t-151.5 101t-184.5 37.5zM766 372h-238v285q0 13 -12.5 13t-12.5 -13v-298q0 -12 13 -12h248q13 0 13 12.5t-11 12.5z" />
    <glyph glyph-name="mingcijieshi" unicode="&#xe731;" 
d="M845 611v24q0 45 -31.5 77t-75.5 32h-425l-169 -170v-536q0 -45 31.5 -77t75.5 -32h486q45 0 76 32t31 77v573h1zM845 679q13 0 13 12v26q0 56 -39 95t-95 39h-474q-5 0 -9 -4l-189 -190q-3 -3 -3 -8v-600q0 -55 39 -94t94 -39h544q55 0 94 39t39 94v201q0 13 -12.5 13
t-12.5 -13v-201q0 -45 -32 -76.5t-76 -31.5h-544q-45 0 -76.5 31.5t-31.5 76.5v572h150q22 0 38 16.5t16 38.5v150h448q44 0 76 -32t32 -77v-26q-1 -4 3 -8t8 -4zM224 646h-148l178 179v-149q0 -12 -9 -21t-21 -9zM920 516l-203 -291q-9 -11 -18 -16l-93 -50q-2 -1 -4 0.5
t-1 3.5l16 105q2 12 9 22l203 290zM942 546l28 42q7 9 5 19.5t-11 16.5l-49 35q-9 6 -19.5 4t-16.5 -11l-30 -41z" />
    <glyph glyph-name="dianhua1" unicode="&#xe601;" 
d="M115 554q-37 -40 24.5 -148t184.5 -220.5t236 -164t150 -11.5l0.5 1l0.5 1l1 1l1 1l33 36l26 28q15 17 14 39.5t-18 37.5l-124 114q-17 15 -39.5 14t-37.5 -17l-20 -22q-15 -17 -37.5 -18t-39.5 15l-104 95q-17 15 -18 37.5t14 39.5l20 22q15 16 14 39t-17 38l-125 114
q-16 15 -39 14t-38 -18l-25 -27l-33 -36q-1 -1 -1.5 -2l-0.5 -1l-1 -0.5t-1 -1.5zM518 594q-8 0 -18 -1v-92q10 1 18 1q39 0 67.5 -28t28.5 -68q0 -10 -4 -23h94q1 13 1 23q0 78 -55 133t-132 55zM576 752q-38 0 -76 -11v-92q37 14 76 14q85 0 145 -60t60 -145
q0 -39 -15 -75h93q10 38 10 75q0 122 -86 208t-207 86z" />
    <glyph glyph-name="youjian" unicode="&#xe60c;" 
d="M883 92q6 0 10.5 4.5t4.5 10.5v76l-90 -91h75zM517.5 357q-19.5 0 -33.5 8l-358 206v-463q0 -7 4.5 -11t10.5 -4h499l258 257v215l-347 -200q-14 -8 -33.5 -8zM258 294q-24 0 -41 17t-17 41t17 41.5t41 17.5t41 -17.5t17 -41.5t-17 -41t-41 -17zM765 92l133 133v83
l-215 -216h82zM883 676h-742q-6 0 -10.5 -4.5t-4.5 -10.5v-55l373 -215q7 -5 18.5 -5t18.5 5l362 209v61q0 6 -4.5 10.5t-10.5 4.5zM883 706h-742q-19 0 -32 -13.5t-13 -31.5v-554q0 -18 13 -31.5t32 -13.5h742q19 0 32 13.5t13 31.5v554q0 18 -13 31.5t-32 13.5zM898 107
q0 -6 -4.5 -10.5t-10.5 -4.5h-75l90 91v-76zM898 225l-133 -133h-82l215 216v-83zM898 350l-258 -258h-499q-6 0 -10.5 4.5t-4.5 10.5v464l358 -206q14 -8 33.5 -8t33.5 8l347 200v-215zM898 600l-362 -209q-7 -5 -18.5 -5t-18.5 5l-373 215v55q0 6 4.5 10.5t10.5 4.5h742
q6 0 10.5 -4.5t4.5 -10.5v-61zM258 352zM200 352q0 -24 17 -41t41 -17t41 17t17 41t-17 41.5t-41 17.5t-41 -17.5t-17 -41.5z" />
    <glyph glyph-name="shouji1" unicode="&#xe611;" 
d="M306 124h286l126 126v422h-412v-548zM484 45q0 11 8.5 19t19.5 8q12 0 20 -8l30 30h-256v-92q0 -5 5 -5h154l28 27q-9 9 -9 21zM718 702v64q0 5 -5 5h-402q-5 0 -5 -5v-64h412zM464 741q0 6 6 6h84q6 0 6 -6v-5q0 -6 -6 -6h-84q-6 0 -6 6v5zM635 124h83v84zM605 94
l-97 -97h98l97 97h-98zM713 -3q5 0 5 5v65l-70 -70h65zM713 801h-402q-15 0 -25 -10.5t-10 -24.5v-764q0 -14 10 -24.5t25 -10.5h402q14 0 24.5 10.5t10.5 24.5v764q0 14 -10 24.5t-25 10.5zM311 771h402q5 0 5 -5v-64h-412v64q0 5 5 5zM635 124l83 84v-84h-83zM718 250
l-126 -126h-286v548h412v-422v0zM302 687zM302 109zM311 -3q-5 0 -5 5v92h256l-30 -30q8 -8 8 -19q0 -12 -8 -20t-20 -8q-11 0 -19 8l-28 -28h-154v0zM508 -3l97 97h98l-97 -97h-98zM718 2q0 -5 -5 -5h-65l70 70v-65zM722 109zM722 687zM470 730h84q6 0 6 6v5q0 6 -6 6h-84
q-6 0 -6 -6v-5q0 -6 6 -6zM512 72q-12 0 -20 -8t-8 -19q0 -12 9 -20q8 -8 19 -8q12 0 20 8t8 20q0 11 -8 19t-20 8z" />
    <glyph glyph-name="dizhi2" unicode="&#xe7aa;" 
d="M512 831q-97 0 -179 -48t-130 -130t-48 -179q0 -56 29 -127.5t69.5 -134.5t82.5 -118t70 -87t29 -32q32 -38 77.5 -38t76.5 38q12 12 31 33.5t67 84.5t85 121t67 131t30 129q0 97 -48 179t-130 130t-179 48zM512.5 -83q-54.5 0 -93.5 44q-14 16 -35.5 41t-69.5 88
t-84.5 121.5t-66 132t-29.5 130.5q0 102 51 189t138 137.5t189 50.5t189 -50.5t138 -137.5t51 -189q0 -57 -29.5 -130t-65.5 -132t-84 -121.5t-69.5 -87.5t-36.5 -42q-38 -44 -92.5 -44zM512 810q-91 0 -168.5 -45t-123 -122.5t-45.5 -168.5q0 -53 29.5 -123t66 -127
t82.5 -117.5t66 -83.5t31 -34v-1q26 -30 62 -30t62 30v1q11 12 31 34.5t66.5 83t82.5 117.5t65.5 127t29.5 123q0 91 -45.5 168.5t-123 122.5t-168.5 45zM512 320q-68 0 -116.5 48.5t-48.5 116.5t48.5 116.5t116.5 48.5t116.5 -48.5t48.5 -116.5t-48.5 -116.5t-116.5 -48.5z
M512 299q-77 0 -131.5 54.5t-54.5 131.5t54.5 131.5t131.5 54.5t131.5 -54.5t54.5 -131.5t-54.5 -131.5t-131.5 -54.5zM512 630q-60 0 -102.5 -42.5t-42.5 -102.5t42.5 -102.5t102.5 -42.5t102.5 42.5t42.5 102.5t-42.5 102.5t-102.5 42.5z" />
    <glyph glyph-name="dianhua2" unicode="&#xe610;" 
d="M251 770l160 -245q-1 -1 -2.5 -3.5t-4 -10t-4 -16t-0.5 -21.5t6 -26q8 -21 55 -80.5t73 -89.5t44 -50v0h25l159 -232q-5 -3 -14 -8t-35.5 -15.5t-52.5 -14.5t-61 1.5t-64 24.5q-41 26 -99.5 90t-115.5 144.5t-96.5 174t-38.5 165.5q2 171 55 207zM861 98
q-68 126 -107 172q-36 43 -65 43q-16 0 -30 -8t-36 -25q-11 -9 -20 -14t-16 -7.5l-7 -2.5q-6 6 -32 38t-64 82t-51 77q-7 15 -8 25t6 20t20 18.5t37 20.5q26 14 39 32.5t11.5 32.5t-5.5 26q-96 147 -147 198q-20 20 -49 20q-24 0 -53 -16t-41 -26.5t-21 -19.5
q-21 -22 -39 -70t-24 -118.5t17 -147.5q70 -232 301 -439q81 -73 174 -73q43 0 87.5 18t65.5 33t37.5 30t22.5 33t4 29t-7 19zM352 792q13 -12 31.5 -36t36.5 -49t34.5 -48t26.5 -38l10 -15q3 -12 -25 -26q-30 -16 -47 -28l-147 212q40 34 65 34q9 0 15 -6zM509 45
q-221 198 -287 417q-19 60 -15.5 118.5t15.5 98t27 61.5l146 -210q-34 -41 -5 -98q15 -29 54.5 -82t64 -83t36.5 -43t35 -13q8 0 18 3l140 -209q-44 -21 -87 -21q-74 0 -142 61zM809 52q-17 -16 -42 -32l-139 206q14 8 24 16q30 23 37 23q6 0 28 -26q28 -33 102 -166
q1 0 1 -2.5t-2.5 -7.5t-8.5 -11v0z" />
    <glyph glyph-name="se-dizhi-" unicode="&#xe614;" 
d="M709 486l191 -126q11 -9 11 -22v-338q0 -17 -15 -25q-6 -3 -13 -3q-9 0 -16 4l-154 47l-185 -48q-14 -8 -28 0l-182 49l-157 -48q-7 -4 -15 -4v0q-7 0 -14 3q-15 8 -15 25v339q0 14 12 23l195 107zM709 486l191 -126q11 -9 11 -22v-338q0 -17 -15 -25q-6 -3 -13 -3
q-9 0 -16 4l-154 47zM318 24l182 -49l7 -2l7 -1l-10 500l-186 -7v-441zM121 262l-7 18l198 76l58 98l17 -9l-62 -104l-3 -2zM123 19l-12 16l203 157l71 14l4 -19l-66 -13zM894 -28l-191 207l-61 24l7 18l65 -26l195 -210zM514 71l-201 178l-107 48l7 18l112 -50l189 -168
l192 175l199 85l8 -18l-196 -84zM514.5 197q11.5 0 44.5 41.5t68.5 98.5t63 124t27.5 111q0 95 -56.5 159.5t-147.5 64.5t-147.5 -64.5t-56.5 -159.5q0 -44 27.5 -111t63 -124t69 -98.5t45 -41.5zM425 592.5q0 36.5 26 62.5t63 26t63 -26t26 -62.5t-26 -63t-63 -26.5
t-63 26.5t-26 63z" />
    <glyph glyph-name="shouji2" unicode="&#xe609;" 
d="M710 37h-396q-14 0 -24.5 10t-10.5 24v626q0 14 10.5 24t24.5 10h396q14 0 24.5 -10t10.5 -24v-626q0 -14 -10.5 -24t-24.5 -10zM710 19h-396q-22 0 -37.5 15.5t-15.5 36.5v626q0 21 15.5 36.5t37.5 15.5h396q22 0 37.5 -15.5t15.5 -36.5v-626q0 -21 -15.5 -36.5
t-37.5 -15.5zM314 713q-7 0 -12 -4.5t-5 -11.5v-626q0 -7 5 -11.5t12 -4.5h396q7 0 12 4.5t5 11.5v626q0 7 -5 11.5t-12 4.5h-396zM745 150h-466h466zM279 168h466v-36h-466v36zM745 656h-466h466zM279 674h466v-36h-466v36zM512 94zM486 93.5q0 -10.5 7.5 -18t18 -7.5
t18.5 7.5t8 18t-8 18t-18.5 7.5t-18 -7.5t-7.5 -18zM562 687h-100q-7 0 -7 6.5t7 6.5h100q6 0 6 -6.5t-6 -6.5zM610 150l135 135zM732 298l25 -26l-134 -134l-26 25zM504 150l242 242zM734 405l25 -25l-242 -242l-25 25z" />
    <glyph glyph-name="position" unicode="&#xe605;" 
d="M81 66q0 -34 57.5 -63t157 -45.5t216.5 -16.5t216.5 16.5t157 45.5t57.5 63t-57.5 63t-157 45.5t-216.5 16.5t-216.5 -16.5t-157 -45.5t-57.5 -63zM523 195v-50h-20v50h20zM503 -36h20v50h-20v-50zM95 62h80v20h-80v-20zM845 82v-20h80v20h-80zM960 66q0 -38 -70 -70v0v0
q-8 -4 -16.5 -1t-12 10.5t-1 16t10.5 11.5v1q39 17 39 37q0 35 -115.5 60.5t-279.5 25.5t-279.5 -25.5t-115.5 -61t115.5 -60.5t279.5 -25q75 0 142 6v0h1q9 0 16.5 -6.5t8 -16t-5.5 -17t-16 -7.5q-72 -8 -149 -8q-122 0 -225 17.5t-163 47.5t-60 65t60 65t163 47.5
t225 17.5t225 -17.5t163 -47.5t60 -65zM769.5 7.5q-9.5 -0.5 -16 -8t-6 -17t8 -16t17.5 -6t16 8t5.5 17.5t-8 16t-17 5.5zM512 77q-78 61 -142 132q-68 74 -106 144q-47 86 -47 159q0 122 86 209q87 86 209 86t208.5 -86.5t86.5 -208.5q0 -73 -47 -158q-39 -71 -106 -145
q-65 -71 -142 -132zM512 782q55 0 105 -21q49 -21 86 -58t58 -86q21 -50 21 -105q0 -125 -146 -285q-56 -62 -124 -118q-68 56 -124 117q-146 160 -146 286q0 55 21 105q21 49 58 86t86 58q50 21 105 21zM512 832q-133 0 -226.5 -93.5t-93.5 -226.5q0 -48 17.5 -99t46 -95.5
t62.5 -87t68 -75t62.5 -58t45.5 -38.5l18 -14q7 5 18.5 14t44.5 38t63.5 59.5t67 75t63.5 87.5t45 94.5t18 98.5q0 133 -93.5 226.5t-226.5 93.5zM472 575.5q0 -16.5 11.5 -28t28.5 -11.5t28.5 11.5t11.5 28t-11.5 28.5t-28.5 12t-28.5 -12t-11.5 -28.5zM248 459
q-6 27 -6 53q0 112 79 191t191 79q29 0 56 -6q-113 -36 -197.5 -120t-122.5 -197zM512 109q-84 69 -148 144q30 -5 61 -5q138 0 238.5 93t112.5 229q6 -29 6 -58q0 -124 -146 -285q-56 -62 -124 -118z" />
    <glyph glyph-name="dianhua3" unicode="&#xe602;" 
d="M833 198q0 -13 -4.5 -32.5t-9.5 -31.5q-9 -23 -55 -48q-43 -23 -85 -23q-13 0 -24.5 1.5t-26 5.5t-21.5 7q-7 2 -26 9q-18 7 -22 8q-45 16 -80 38q-58 36 -120.5 98.5t-98.5 120.5q-22 35 -38 80q-1 4 -8 22q-7 19 -9 26q-3 6 -7 21t-5.5 26.5t-1.5 24.5q0 42 23 85
q25 46 48 55q12 5 31.5 9.5t32.5 4.5q6 0 9 -1q9 -3 25 -35q4 -8 13 -24q8 -15 16 -29q7 -13 14 -25q2 -2 8 -11q7 -10 10 -16.5t3 -12.5q0 -9 -13 -23t-28 -25.5t-28 -24t-13 -20.5q0 -5 2 -11t3.5 -9t6.5 -11t6 -9q34 -62 79 -107t107 -79q1 -1 9 -6q8 -4 11 -6t9 -4
t11 -2q8 0 20.5 13t24 28t25 28t23.5 13q6 0 12.5 -3t16.5 -10q10 -6 11 -8q12 -7 25 -14q12 -7 29 -16q15 -8 24 -13q32 -16 35 -25q1 -3 1 -9z" />
    <glyph glyph-name="dianhua4" unicode="&#xe60d;" 
d="M582 410q-28 18 -66.5 18t-65.5 -18q-30 -20 -30 -48.5t30 -48.5q27 -18 65.5 -18t66.5 18q29 20 29 48.5t-29 48.5zM765 118h-513v122q0 104 74 178t178 74h22q103 0 177.5 -74t74.5 -178v-109q0 -5 -4 -9t-9 -4zM358 398v0q24 24 35.5 45.5t4.5 29t-29 -4.5t-45 -35v0
v0q-24 -24 -35.5 -46t-4.5 -29t29 4.5t45 35.5v0zM668 396v0q24 -23 46 -35t29 -5t-4.5 29t-35.5 46v0v0q-24 24 -45.5 35.5t-29 4.5t4.5 -29t35 -46v0zM253 206h522v-83h-522v83zM760 112h-494q-8 0 -13 5.5t-5 12.5v107q0 109 77.5 187t187 78t187 -78t77.5 -187v-107
q0 -7 -5 -12.5t-12 -5.5zM255 123h515v110q0 106 -75.5 182t-181.5 76t-182 -75.5t-76 -182.5v-110zM527 460q-59 0 -100.5 -32t-41.5 -76.5t41.5 -76t100.5 -31.5t100.5 31.5t41.5 76t-41.5 76.5t-100.5 32zM609 352q0 -22 -24.5 -38.5t-58 -16.5t-58 16.5t-24.5 38.5
t24.5 38.5t58 16.5t58 -16.5t24.5 -38.5zM512 261.5q-52 0.5 -90 27.5q-43 32 -43 75.5t43 75.5q38 28 90 28t90 -28q48 -35 48 -75t-48 -76q-38 -28 -90 -27.5zM511 424q-33 0 -59 -18.5t-26 -41t27 -41t60 -18.5t59.5 18.5t26.5 41t-27 41t-61 18.5zM512.5 257
q-58.5 0 -100.5 31.5t-42 76t42 76t100.5 31.5t100.5 -31.5t42 -76t-42 -76t-100.5 -31.5zM513 465q-58 -1 -96 -31.5t-38 -68.5q0 -37 39 -69t95 -32q59 0 96.5 31t37.5 69.5t-38 69.5t-96 31zM512 301q-36 0 -62 18q-28 18 -28 45.5t28 46.5q26 17 62 17t62 -17
q28 -19 28 -46.5t-28 -45.5q-26 -18 -62 -18zM512 422q-34 0 -58.5 -17t-24.5 -40.5t24.5 -40.5t58.5 -17t59 17t25 40.5t-25 40.5t-59 17zM380 201h-122q-10 0 -10 4.5t10 4.5h122q10 0 10 -4.5t-10 -4.5zM766 201h-122q-10 0 -10 4.5t10 4.5h122q10 0 10 -4.5t-10 -4.5z
M753 570q-61 47 -140.5 65t-159.5 7q-51 -8 -102 -28.5t-96 -60t-55 -87.5q-10 -42 30 -65v0q29 -17 43 -25q7 -2 11.5 -2.5t11.5 4.5t10.5 9t9 10.5t8.5 9.5q19 19 40 37q1 0 4 2.5t3.5 3l3 3l3.5 3.5t3 3.5t2.5 4t1 4t0.5 4.5t-0.5 4.5t-1.5 4.5q-7 13 -12 21q-5 12 3 23
t20 15q133 35 236 0q12 -5 20 -15.5t3 -21.5q-3 -5 -6 -11t-5.5 -10.5t-3 -8.5t2 -8t3.5 -6t6 -6.5t6 -5t7 -5.5q34 -26 55 -53q7 -10 18.5 -15t19.5 -1q19 12 26.5 17t20.5 16.5t17 24.5t2 30q-7 62 -69 109zM253 228q-46 26 -53 67q-4 23 5.5 50.5t17 37.5t12.5 17l8 -6
q-43 -54 -34 -99q7 -37 45 -58zM266 412q-2 0 -4 1q-40 19 -46 41q-6 20 11 45q60 93 194 122q9 2 11 -7.5t-7 -11.5q-126 -27 -182 -113q-11 -18 -8 -30q4 -14 35 -29q9 -4 5 -13q-3 -5 -9 -5zM466 620zM455 620.5q0 -4.5 3.5 -8t8 -3.5t7.5 3.5t3 8t-3 7.5t-7.5 3t-8 -3
t-3.5 -7.5zM411 538q53 19 132.5 13t107.5 -34q4 6 4 11q0 20 -41.5 34t-99.5 14t-99 -14t-41 -34q0 -5 3 -10q3 13 34 20zM558 364q0 -13 -14 -22.5t-31 -9.5t-31.5 9t-15.5 20q-1 15 14 25t33 10q19 0 32 -8.5t13 -23.5zM513 328q-21 0 -35.5 10.5t-14.5 26t14.5 26
t35.5 10.5t35.5 -10.5t14.5 -26t-14.5 -26t-35.5 -10.5zM512.5 396q-18.5 0 -31.5 -10t-13 -21.5t13 -21.5t31.5 -10t31.5 10.5t13 22t-13 21t-31.5 9.5zM282 363q-7 0 -14 4l-38 23v-1l-5 3q-42 25 -31 77q17 75 103 127q71 43 155 55q83 12 164.5 -7.5t142.5 -65.5
q65 -50 73 -117q1 -17 -3 -31t-15.5 -25t-20 -16.5t-24.5 -15.5q-4 -2 -11 -6q-11 -6 -24.5 -1.5t-23.5 16.5q-19 27 -53 52l-2 2q-35 26 -22 50l11 21q2 4 0 9q-4 10 -17 15q-115 39 -230 -1q-13 -5 -17 -14q-2 -5 0 -10l11 -21q12 -22 -19 -47q0 -1 -2 -2q-21 -17 -40 -36
q0 -1 -6 -8q-24 -29 -42 -29zM220 408l59 -34q12 -4 31 19q5 7 8 10q21 22 43 41q1 0 3 2q21 17 20 28l-13 24q-5 12 -1 22q2 4 4 7t4 4.5t6 3.5t5.5 2.5t6 2.5t5.5 2q120 34 229 -1q16 -6 23 -17q5 -10 0 -22l-2 -4l-10 -19q-7 -15 15 -32l2 -1q42 -34 61 -59
q19 -20 34 -12q1 1 6.5 4t7.5 5l16.5 11t17 12.5t11 11.5t9.5 17t1 20q-8 66 -64 111q-61 47 -142 67t-164 7q-36 -5 -74 -18t-75.5 -34t-65 -53t-35.5 -70t18 -58z" />
    <glyph glyph-name="icon-test" unicode="&#xe629;" 
d="M931 719q-8 0 -13.5 -5.5t-5.5 -12.5v-724q0 -16 -9 -28t-22 -12h-738q-13 0 -22 12t-9 28v724q0 7 -5.5 12.5t-13.5 5.5t-13.5 -5.5t-5.5 -12.5v-724q0 -32 20.5 -54.5t48.5 -22.5h738q28 0 48.5 22.5t20.5 54.5v724q0 7 -5.5 12.5t-13.5 5.5zM977 784h-260v47
q0 15 -11 26t-26 11h-336q-15 0 -26 -11t-11 -26v-47h-260q-8 0 -13.5 -5.5t-5.5 -13t5.5 -13t13.5 -5.5h930q8 0 13.5 5.5t5.5 13t-5.5 13t-13.5 5.5zM344 831h336v-47h-336v47zM512 28q8 0 13.5 5.5t5.5 13.5v577q0 7 -5.5 12.5t-13.5 5.5t-13.5 -5.5t-5.5 -12.5v-577
q0 -8 5.5 -13.5t13.5 -5.5zM316.5 28q7.5 0 13 5.5t5.5 13.5v577q0 7 -5.5 12.5t-13 5.5t-13 -5.5t-5.5 -12.5v-577q0 -8 5.5 -13.5t13 -5.5zM707.5 28q7.5 0 13 5.5t5.5 13.5v577q0 7 -5.5 12.5t-13 5.5t-13 -5.5t-5.5 -12.5v-577q0 -8 5.5 -13.5t13 -5.5z" />
    <glyph glyph-name="icon-test1" unicode="&#xe62c;" 
d="M391 -63h-228q-16 0 -26.5 11t-10.5 26v820q0 15 10.5 26t26.5 11h633q15 0 26 -11t11 -26v-113q0 -7 5.5 -12.5t13 -5.5t13 5.5t5.5 12.5v113q0 30 -21.5 52t-52.5 22h-633q-31 0 -53 -22t-22 -52v-820q0 -30 22 -52t53 -22h228q7 0 12.5 5.5t5.5 13t-5.5 13t-12.5 5.5
v0zM749 662.5q0 7.5 -5.5 13t-12.5 5.5h-503q-8 0 -13.5 -5.5t-5.5 -13t5.5 -13t13.5 -5.5h503q7 0 12.5 5.5t5.5 13zM888 584.5q-33 19.5 -70 10.5t-55 -41l-279 -483q-19 -33 -20 -83q-1 -61 33 -81q12 -7 28 -7q27 0 58 19q43 26 62 58l279 484q19 32 8 68t-44 55.5z
M892 480l-12 -21q7 -4 9 -11.5t-2 -14t-11.5 -8.5t-14.5 2l-248 -431q-15 -24 -49 -45q-34 -20 -48.5 -11.5t-14.5 47.5q1 40 15 65l249 430q-7 4 -9 11.5t2 14.5t11.5 9t13.5 -2l12 21q14 24 45 24q15 0 29 -8q20 -11 27 -32.5t-4 -39.5zM783 515q-6 4 -13.5 2t-11.5 -9
t-2 -14.5t9 -11.5l96 -55q7 -4 14.5 -2t11.5 8.5t2 14t-9 11.5zM656 476.5q0 7.5 -5.5 13t-12.5 5.5h-410q-8 0 -13.5 -5.5t-5.5 -13t5.5 -13t13.5 -5.5h410q7 0 12.5 5.5t5.5 13zM228 308q-8 0 -13.5 -5.5t-5.5 -13t5.5 -13t13.5 -5.5h242q8 0 13.5 5.5t5.5 13t-5.5 13
t-13.5 5.5h-242z" />
    <glyph glyph-name="icon-test2" unicode="&#xe634;" 
d="M993 505q-24 73 -47 130q-36 89 -65 118t-118 65q-57 24 -130 47q-43 13 -75 -19l-508 -509q-22 -21 -22 -51.5t22 -52.5l311 -311q22 -22 52.5 -22t51.5 22l509 509q32 31 19 74zM439 -52q-11 -11 -26 -11t-25 11l-312 312q-11 10 -11 25t11 26l509 509q16 16 37 9
q191 -61 233 -102q41 -42 102 -233q7 -21 -9 -37l-509 -509v0zM801 673q-27 27 -65.5 27t-66 -27t-27.5 -65.5t27.5 -66t66 -27.5t65.5 27.5t27 66t-27 65.5zM696 568q-16 16 -16 39.5t16 39.5t39.5 16t39.5 -16t16 -39.5t-16 -39.5t-39.5 -16t-39.5 16zM239 225l-48 48
q-7 7 0 14l92 92q6 6 6 13.5t-5.5 13t-13 5.5t-13.5 -5l-93 -93q-13 -14 -13 -33t13 -33l49 -49q6 -5 13.5 -5t13 5.5t5.5 13t-6 13.5z" />
    <glyph glyph-name="icon-test3" unicode="&#xe636;" 
d="M991 -67l-202 202q50 55 80 124q34 81 34 170.5t-34 170.5q-34 78 -94 139q-61 60 -139 94q-82 34 -171 34q-88 0 -170 -34q-78 -34 -139 -94q-60 -60 -94 -139q-34 -82 -34 -171t34 -170q33 -78 94 -139q60 -60 139 -94q81 -34 170 -34t171 34q70 30 127 82l201 -202
q6 -5 13.5 -5t13 5.5t5.5 13t-5 13.5zM621 61q-74 -32 -155.5 -32t-155.5 32q-72 30 -127.5 85.5t-85.5 127.5q-32 74 -32 155.5t32 155.5q30 72 85.5 127.5t127.5 85.5q74 32 155.5 32t155.5 -32q72 -30 127.5 -85.5t85.5 -127.5q32 -74 32 -155.5t-32 -155.5
q-30 -72 -85.5 -127.5t-127.5 -85.5zM378 782q-98 -24 -169.5 -96t-95.5 -170q-2 -8 2 -14.5t11 -8.5h5q15 0 18 14q21 88 86 153q64 64 152 86q8 2 12 8.5t2 14t-8.5 11.5t-14.5 2zM810.5 434q-7.5 0 -13.5 -5t-6 -13q-5 -127 -95 -217t-217 -95q-8 0 -13 -6t-5 -13.5
t5.5 -12.5t13.5 -5v0q142 5 242 105.5t106 241.5q0 8 -5 14t-12.5 6z" />
    <glyph glyph-name="tel" unicode="&#xe62b;" 
d="M326 137h435v-102q1 -15 -1.5 -24t-9.5 -12.5t-12.5 -4t-16.5 -0.5h-6h-343q-19 0 -32.5 12t-13.5 29v102zM761 829h-501q-20 0 -34 -14t-14 -34v-787q0 -19 14 -33t34 -14h501q19 0 33 14t14 33v787q0 20 -14 34t-33 14zM761 18q0 -10 -7 -17t-17 -7h-453q-10 0 -17 7
t-7 17v119h501v-119zM761 185h-501v429h501v-429zM761 662h-501v95q0 10 7 17t17 7h453q10 0 17 -7t7 -17v-95zM451 710h119v24h-119v-24zM510.5 42q14.5 0 25 10.5t10.5 25.5t-10.5 25.5t-25 10.5t-25 -10.5t-10.5 -25.5t10.5 -25.5t25 -10.5z" />
    <glyph glyph-name="sousuo1" unicode="&#xe60e;" horiz-adv-x="1000" 
d="M936 72l-198 203q-1 1 -3.5 2.5t-3.5 2.5q66 93 66 207q0 98 -48 181t-131 131t-180.5 48t-180.5 -48t-131 -131t-48 -180.5t48 -180.5t131 -131t181 -48q121 0 218 74q0 -1 1 -2.5t2 -1.5l198 -204q17 -16 40 -16q22 0 39 15q16 16 16 39t-16 40zM133 487.5
q0 125.5 89.5 215t215.5 89.5t215 -89.5t89 -215t-89 -215t-215 -89.5t-215.5 89.5t-89.5 215z" />
    <glyph glyph-name="pencil" unicode="&#xe6c1;" 
d="M227 674h213v-604h-213v604zM440 56h-213q-6 0 -9.5 4t-3.5 10v604q0 5 3.5 9t9.5 4h213q13 0 13 -13v-604q0 -6 -4 -10t-9 -4zM241 83h185v577h-185v-577zM436 -92h-205q-4 0 -4 4v158h213v-158q0 -4 -4 -4zM436 -105h-205q-7 0 -12 5t-5 12v158q0 5 3.5 9t9.5 4h213
q5 0 9 -4t4 -9v-158q0 -7 -5 -12t-12 -5zM241 -78h185v134h-185v-134zM440 674h-213l96 146h21zM440 660h-213q-8 0 -12 7t1 14l95 146q4 6 12 6h21q7 0 11 -6l96 -146q4 -7 0.5 -14t-11.5 -7zM252 687h162l-77 119h-7zM368 780h-70l32 62h7zM368 767h-70q-7 0 -11 6t-1 13
l32 62q3 8 12 8h7q8 0 12 -8l31 -62q4 -7 0 -13t-12 -6zM320 794h26l-13 25zM221 95h225v-50h-225v50zM446 31h-225q-6 0 -10 4t-4 10v50q0 5 4 9t10 4h225q6 0 9.5 -4t3.5 -9v-50q0 -6 -3.5 -10t-9.5 -4zM234 58h198v23h-198v-23zM298 674v-332v332zM298.5 328
q-5.5 0 -9.5 4t-4 10v332q0 5 4 9t9.5 4t9.5 -4t4 -9v-332q0 -6 -4 -10t-9.5 -4zM298 261v-166v166zM298.5 81q-5.5 0 -9.5 4t-4 10v166q0 5 4 9t9.5 4t9.5 -4t4 -9v-166q0 -6 -4 -10t-9.5 -4zM759 -92h-148q-16 0 -27.5 11.5t-11.5 27.5v884q0 16 11.5 27.5t27.5 11.5h148
q16 0 27.5 -11.5t11.5 -27.5v-884q0 -16 -11.5 -27.5t-27.5 -11.5zM759 -105h-148q-22 0 -37.5 15.5t-15.5 36.5v884q0 22 15.5 37t37.5 15h148q21 0 36.5 -15t15.5 -37v-884q0 -21 -15.5 -36.5t-36.5 -15.5zM611 856q-11 0 -18.5 -7t-7.5 -18v-884q0 -10 7.5 -17.5
t18.5 -7.5h148q10 0 17.5 7.5t7.5 17.5v884q0 11 -7.5 18t-17.5 7h-148v0zM660 792h-88h88zM660 778h-88q-6 0 -10 4t-4 9.5t4 9.5t10 4h88q5 0 9 -4t4 -9.5t-4 -9.5t-9 -4zM660 650h-88h88zM660 636h-88q-6 0 -10 4t-4 9.5t4 9.5t10 4h88q5 0 9 -4t4 -9.5t-4 -9.5t-9 -4z
M660 508h-88h88zM660 494h-88q-6 0 -10 4t-4 9.5t4 9.5t10 4h88q5 0 9 -4t4 -9.5t-4 -9.5t-9 -4zM660 366h-88h88zM660 352h-88q-6 0 -10 4t-4 9.5t4 9.5t10 4h88q13 0 13 -13.5t-13 -13.5zM660 224h-88h88zM660 210h-88q-6 0 -10 4t-4 9.5t4 9.5t10 4h88q13 0 13 -13.5
t-13 -13.5zM660 82h-88h88zM660 68h-88q-6 0 -10 4t-4 9.5t4 9.5t10 4h88q13 0 13 -13.5t-13 -13.5zM628 744h-56h56zM628 731h-56q-6 0 -10 4t-4 9.5t4 9.5t10 4h56q5 0 9 -4t4 -9.5t-4 -9.5t-9 -4zM628 555h-56h56zM628 541h-56q-6 0 -10 4t-4 10t4 9.5t10 3.5h56
q5 0 9 -3.5t4 -9.5t-4 -10t-9 -4zM628 460h-56h56zM628 447h-56q-6 0 -10 4t-4 9.5t4 9.5t10 4h56q5 0 9 -4t4 -9.5t-4 -9.5t-9 -4zM628 413h-56h56zM628 399h-56q-6 0 -10 4t-4 10t4 9.5t10 3.5h56q5 0 9 -3.5t4 -9.5t-4 -10t-9 -4zM628 318h-56h56zM628 305h-56
q-6 0 -10 4t-4 9.5t4 9.5t10 4h56q5 0 9 -4t4 -9.5t-4 -9.5t-9 -4zM628 271h-56h56zM628 257h-56q-6 0 -10 4t-4 10t4 9.5t10 3.5h56q5 0 9 -3.5t4 -9.5t-4 -10t-9 -4zM628 176h-56h56zM628 163h-56q-6 0 -10 4t-4 9.5t4 9.5t10 4h56q5 0 9 -4t4 -9.5t-4 -9.5t-9 -4z
M628 129h-56h56zM628 115h-56q-6 0 -10 4t-4 10t4 9.5t10 3.5h56q5 0 9 -3.5t4 -9.5t-4 -10t-9 -4zM628 34h-56h56zM628 21h-56q-6 0 -10 4t-4 9.5t4 9.5t10 4h56q5 0 9 -4t4 -9.5t-4 -9.5t-9 -4zM628 -13h-56h56zM628 -27h-56q-6 0 -10 4t-4 9.5t4 9.5t10 4h56q5 0 9 -4
t4 -9.5t-4 -9.5t-9 -4zM628 697h-56h56zM628 683h-56q-6 0 -10 4t-4 10t4 9.5t10 3.5h56q5 0 9 -3.5t4 -9.5t-4 -10t-9 -4zM628 602h-56h56zM628 589h-56q-6 0 -10 4t-4 9.5t4 9.5t10 4h56q5 0 9 -4t4 -9.5t-4 -9.5t-9 -4z" />
    <glyph glyph-name="notebook" unicode="&#xe6c4;" 
d="M889 574h-131q-2 0 -2 2v150q0 3 2 3h131q11 0 18 -7.5t7 -17.5v-105q0 -11 -7 -18t-18 -7zM889 561h-131q-6 0 -10.5 4.5t-4.5 10.5v150q0 7 4.5 11.5t10.5 4.5h131q16 0 27 -11t11 -27v-105q0 -16 -11 -27t-27 -11zM769 587h120q5 0 8.5 3.5t3.5 8.5v105q0 5 -3.5 8.5
t-8.5 3.5h-120v-129zM864 416h-131q-2 0 -2 3v150q0 2 2 2h131q10 0 17.5 -7t7.5 -18v-105q0 -10 -7.5 -17.5t-17.5 -7.5zM864 403h-131q-6 0 -10.5 5t-4.5 11v150q0 6 4.5 10.5t10.5 4.5h131q16 0 27 -11t11 -27v-105q0 -15 -11 -26.5t-27 -11.5zM744 429h120q5 0 8.5 3.5
t3.5 8.5v105q0 5 -3.5 8.5t-8.5 3.5h-120v-129zM864 268h-131q-2 0 -2 2v150q0 2 2 2h138q8 0 13 -5t5 -12v-113q0 -10 -7.5 -17t-17.5 -7zM864 255h-131q-6 0 -10.5 4.5t-4.5 10.5v150q0 6 4.5 11t10.5 5h138q13 0 22 -9t9 -22v-113q0 -15 -11 -26t-27 -11zM744 281h120
q5 0 8.5 3.5t3.5 7.5v113q0 5 -5 5h-127v-129zM748 -65h-492q-40 0 -67.5 27.5t-27.5 66.5v765q0 20 14.5 34.5t34.5 14.5h583q20 0 34.5 -14.5t14.5 -34.5v-764q0 -40 -27.5 -67.5t-66.5 -27.5zM748 -78h-492q-45 0 -76.5 31.5t-31.5 75.5v765q0 26 18.5 44t43.5 18h583
q26 0 44 -18t18 -44v-764q0 -45 -31.5 -76.5t-75.5 -31.5zM210 830q-15 0 -25.5 -10.5t-10.5 -25.5v-764q0 -34 24 -58t58 -24h492q33 0 57 24t24 58v764q0 15 -10.5 25.5t-25.5 10.5h-583zM791 18h-579q-21 0 -36 15t-15 36v723q0 21 15 36t36 15h579q21 0 36 -15t15 -36
v-723q0 -21 -15 -35.5t-36 -15.5zM791 6h-579q-27 0 -45.5 18.5t-18.5 44.5v723q0 27 18.5 45.5t45.5 18.5h579q27 0 45.5 -18.5t18.5 -45.5v-723q0 -26 -18.5 -44.5t-45.5 -18.5zM212 830q-16 0 -27 -11t-11 -27v-723q0 -15 11 -26t27 -11h579q16 0 27 11t11 26v723
q0 16 -11 27t-27 11h-579zM358 529zM325 528.5q0 -13.5 9.5 -23t23 -9.5t23 9.5t9.5 23t-9.5 23t-23 9.5t-23 -9.5t-9.5 -23zM653 529zM620 528.5q0 -13.5 9.5 -23t23 -9.5t23 9.5t9.5 23t-9.5 23t-23 9.5t-23 -9.5t-9.5 -23zM505 403q-29 0 -49.5 20t-20.5 49v22q0 5 4 9
t9 4t9 -4t4 -9v-22q0 -18 13 -30.5t31 -12.5t31 12.5t13 30.5v22q0 5 4 9t9.5 4t9 -4t3.5 -9v-22q0 -29 -20.5 -49t-49.5 -20zM198 712h-86q-7 0 -12 5t-5 12t5 12t12 5h86q7 0 12 -5t5 -12t-5 -12t-12 -5zM198 618h-86q-7 0 -12 5t-5 12t5 12t12 5h86q7 0 12 -5t5 -12
t-5 -12t-12 -5zM198 524h-86q-7 0 -12 5t-5 12t5 12t12 5h86q7 0 12 -5t5 -12t-5 -12t-12 -5zM198 430h-86q-7 0 -12 5t-5 12t5 12t12 5h86q7 0 12 -5t5 -12t-5 -12t-12 -5zM198 336h-86q-7 0 -12 5t-5 12t5 12t12 5h86q7 0 12 -5t5 -12t-5 -12t-12 -5zM198 242h-86
q-7 0 -12 5t-5 12t5 12t12 5h86q7 0 12 -5t5 -12t-5 -12t-12 -5zM198 148h-86q-7 0 -12 5t-5 12t5 12t12 5h86q7 0 12 -5t5 -12t-5 -12t-12 -5z" />
    <glyph glyph-name="delete" unicode="&#xe6c5;" 
d="M724 698h-428l54 147h320zM724 680h-428q-9 0 -15 7.5t-2 16.5l54 147q4 12 17 12h320q13 0 18 -12l54 -147q3 -9 -2.5 -16.5t-15.5 -7.5zM323 716h375l-41 110h-294zM664 -86h-324q-41 0 -70 28.5t-30 69.5l-16 649h573l-33 -651q-2 -40 -31 -68t-69 -28zM664 -99h-324
q-46 0 -79 32t-34 78l-17 663h601l-34 -665q-2 -45 -34.5 -76.5t-78.5 -31.5zM237 648l16 -636q1 -35 26 -59.5t61 -24.5h324q35 0 60 24t26 58l33 638h-546zM827 656h-634q-16 0 -28 12t-12 29v2q0 17 12 29t28 12h634q17 0 29 -12t12 -29v-2q0 -17 -12 -29t-29 -12z
M826 643h-632q-22 0 -38 16t-16 39t16 39t38 16h632q23 0 39 -16t16 -39t-16 -39t-39 -16zM194 726q-11 0 -19.5 -8t-8.5 -20t8.5 -20t19.5 -8h632q12 0 20 8t8 20t-8 20t-20 8h-632zM355 466v-370v370zM354.5 83q-5.5 0 -9.5 4t-4 9v370q0 5 4 9t9.5 4t9.5 -4t4 -9v-370
q0 -5 -4 -9t-9.5 -4zM458 466v-370v370zM458.5 83q-5.5 0 -9.5 4t-4 9v370q0 5 4 9t9.5 4t9.5 -4t4 -9v-370q0 -5 -4 -9t-9.5 -4zM562 466v-370v370zM562.5 83q-5.5 0 -9.5 4t-4 9v370q0 5 4 9t9.5 4t9.5 -4t4 -9v-370q-1 -5 -4.5 -9t-9 -4zM666 466v-370v370zM665.5 83
q-5.5 0 -9.5 4t-4 9v370q0 5 4 9t9.5 4t9.5 -4t4 -9v-370q0 -5 -4 -9t-9.5 -4z" />
    <glyph glyph-name="dianhuahaoma-" unicode="&#xe67b;" 
d="M722 -63q-70 0 -184 71q-109 67 -213 168v0l-21 21q-101 104 -168 213q-71 114 -71 184q0 68 63 153q12 16 26 31.5t39.5 34t45.5 18.5q26 0 63 -39q27 -28 58 -72q30 -43 50 -81q23 -44 23 -66q0 -28 -29 -49q-13 -8 -43 -22q-26 -11 -32 -16q5 -21 36 -67
q38 -55 82 -100q45 -44 100 -82q46 -31 67 -36q5 6 16 32q14 30 22 43q21 29 49 29q22 0 66 -23q39 -20 81 -50q44 -31 72 -58q39 -37 39 -63q0 -20 -18.5 -45.5t-34 -39.5t-31.5 -26q-85 -63 -153 -63zM362 214q100 -97 204 -161q101 -63 156 -63q50 0 118 51q30 21 49 43
q14 16 17 26q-5 9 -28.5 31.5t-64.5 50.5q-38 26 -71 44q-29 15 -40 16q-4 -2 -9 -10q-5 -9 -14 -30q-12 -27 -19 -38q-17 -27 -43 -27v0q-33 1 -100 47q-59 40 -107 87l-1 1q-47 48 -87 107q-46 67 -47 100q0 25 27 43q11 7 38 19q21 9 30 14q8 5 10 9q-1 11 -16 40
q-18 33 -44 71q-28 41 -50.5 64.5t-31.5 28.5q-9 -3 -26 -17q-22 -19 -43 -49q-51 -68 -51 -118q0 -55 63 -156q64 -104 161 -204zM362 214z" />
    <glyph glyph-name="zhuyuandianhua" unicode="&#xe617;" horiz-adv-x="1078" 
d="M536 755v0q-85 10 -165 -3.5t-126.5 -39t-54.5 -53.5q-5 -18 8 -59.5t29 -73.5l16 -32zM844 459q-111 185 -257 185q-75 0 -140.5 -48.5t-116.5 -136.5l-119 -205q-37 -87 4 -149t136 -62h472q95 0 136 62t4 149v1q-53 95 -119 204zM845 219q-111 75 -257 75
q-150 0 -257 -75l-118 -84q-10 -39 20.5 -62.5t119.5 -23.5h471q19 0 34.5 1.5t27.5 3t21.5 5.5t16 6.5t12.5 9t9 10t6.5 11.5t4.5 12t4 14t4 13v1q-54 39 -119 83zM823 25h-472q-104 0 -150.5 70t-5.5 167q0 1 1 2l118 204q55 94 125.5 144t147.5 50q156 0 273 -193
q61 -102 119 -205q0 -1 1 -2q41 -97 -5.5 -167t-151.5 -70zM228 246q-33 -77 3 -131q35 -54 120 -54h472q85 0 121 54q35 54 2 131q-57 103 -117 204q-106 176 -242 176q-139 0 -241 -176zM922 476q-21 0 -40 12.5t-25 28.5q-27 69 -98.5 121.5t-146.5 56.5q-11 1 -23 1
t-24 -1h-0.5h-1.5q-74 -4 -145.5 -56.5t-97.5 -121.5q-6 -16 -25 -28.5t-41 -12.5q-17 0 -32 9q-35 22 -46 75q-3 15 -3 30q0 20 8 45t19 41q29 41 125 72t234 31l1 1h28q16 0 31 -1q138 0 233.5 -31t123.5 -72q12 -16 20 -41t8 -45q0 -15 -3 -30q-11 -53 -46 -75
q-15 -9 -32 -9h-1zM589 733q13 0 26 -1q84 -5 165 -64.5t111 -137.5q2 -5 11.5 -11.5t19.5 -6.5q8 0 14 4q21 13 29 51q2 12 2 23q0 36 -20 66q-22 30 -110 58.5t-220 28.5v0h-3q-13 1 -25 1q-13 0 -26 -1h-2v0q-133 0 -221 -28t-110 -59q-21 -30 -21 -66q0 -11 3 -23
q7 -38 29 -51q6 -4 13 -4q10 0 20 6.5t12 11.5q33 87 108.5 142t168.5 60h1q12 1 24 1h1zM638 362h-102q-8 0 -13 5t-5 12.5t5 13t13 5.5h102q8 0 13.5 -5.5t5.5 -13t-5.5 -12.5t-13.5 -5zM587.5 310q-7.5 0 -13 5.5t-5.5 13.5v102q0 8 5.5 13t13 5t12.5 -5t5 -13v-102
q0 -8 -5 -13.5t-12.5 -5.5z" />
    <glyph glyph-name="color-czjs" unicode="&#xe706;" 
d="M928 340q-1 -113 -57 -209t-151.5 -152t-207.5 -56t-207.5 56t-151.5 152t-57 209v219l416 286l416 -286v-219zM732 118q91 92 93 222h-1v165l-312 215l-312 -215v-165h-1q2 -130 93 -222q91 -91 220 -91t220 91zM761 769h167v-190h-1l-166 114v76zM639 372
q-11 1 -19.5 -2.5t-13.5 -9t-8 -11t-4 -9.5l-1 -4q-9 -32 -31.5 -53t-50.5 -21t-50.5 21t-30.5 53q-12 36 -45 36q-18 0 -29.5 -10.5t-13.5 -18.5t-1 -11q4 -73 53.5 -123.5t116.5 -50.5q66 0 114.5 48t55.5 119q3 21 -10 34t-32 13z" />
    <glyph glyph-name="dianziyouxiang" unicode="&#xe64d;" horiz-adv-x="1306" 
d="M158 896h991q67 0 111 -47q47 -44 47 -111v-708q0 -66 -47 -113q-45 -45 -111 -45h-991q-64 0 -111 45q-47 49 -47 113v708q0 67 47 111q44 47 111 47zM1269 705l-605 -379q-11 -6 -21 1l-605 376v-673q0 -49 36 -85q33 -35 84 -35h991q50 0 85 35t35 85v675zM39 749
l614 -384l615 384q-3 44 -35 74q-33 35 -84 35h-991q-51 0 -84 -35q-32 -30 -35 -74v0zM39 749l614 -384l615 384q-3 44 -35 74q-33 35 -84 35h-991q-51 0 -84 -35q-32 -30 -35 -74v0z" />
    <glyph glyph-name="weixin" unicode="&#xe64e;" horiz-adv-x="1233" 
d="M1197 248q0 120 -103 208q-50 42 -114.5 65.5t-133.5 23.5q-148 0 -250 -86q-48 -42 -74.5 -96t-26.5 -115v-7q2 -117 101 -202q103 -88 250 -88q28 0 62 7q26 5 63 15q10 0 14 -3l81 -44l-21 68q-4 10 7 19q72 54 109 114q36 63 36 121zM972.5 393q19.5 0 33 -14
t13.5 -33.5t-13.5 -33t-33 -13.5t-33 13.5t-13.5 33t13.5 33.5t33 14zM731.5 393q19.5 0 33.5 -14t14 -33.5t-14 -33t-33.5 -13.5t-33 13.5t-13.5 33t13.5 33.5t33 14zM609 699q25 0 43 -17.5t18 -42.5t-18 -43t-42.5 -18t-42.5 18t-18 43t17.5 42.5t42.5 17.5zM305 699
q25 0 42.5 -17.5t17.5 -42.5t-17.5 -43t-42.5 -18t-42.5 18t-17.5 43t17.5 42.5t42.5 17.5zM487 123h-12q-10 -1 -22 -1q-43 0 -131 16q-7 2 -19 4l-146 -73q-9 -3 -14 -1q-17 7 -12 23l40 119q-82 60 -124 130q-47 79 -47 169q0 80 35.5 151t97.5 123q62 54 144.5 83.5
t175.5 29.5q172 0 298 -89q117 -85 154 -230q119 -16 212 -94q54 -46 85 -107t31 -128q0 -72 -42 -139q-39 -62 -108 -117l30 -97q2 -5 -1 -14q-10 -15 -25 -7l-113 62q-10 -2 -30 -7t-29 -7q-39 -7 -69 -7q-160 0 -274 96q-56 51 -85 112zM868 581q-36 124 -138 197
q-116 82 -277 82q-85 0 -162.5 -27t-135.5 -76q-56 -48 -87.5 -112t-31.5 -136q0 -78 41 -150q44 -72 125 -129q11 -6 6 -20l-29 -90l113 58q4 1 12 1q1 0 5 -1t9.5 -2t10.5 -2q85 -17 124 -17q12 0 19 2h1q-10 28 -12 60q0 1 -1 1.5t-1 1.5v26q0 68 30 129.5t85 107.5
q52 45 122.5 70.5t149.5 25.5h22zM609 699q25 0 43 -17.5t18 -42.5t-18 -43t-42.5 -18t-42.5 18t-18 43t17.5 42.5t42.5 17.5zM305 699q25 0 42.5 -17.5t17.5 -42.5t-17.5 -43t-42.5 -18t-42.5 18t-17.5 43t17.5 42.5t42.5 17.5zM868 581q-36 124 -138 197q-116 82 -277 82
q-85 0 -162.5 -27t-135.5 -76q-56 -48 -87.5 -112t-31.5 -136q0 -78 41 -150q44 -72 125 -129q11 -6 6 -20l-29 -90l113 58q4 1 12 1q1 0 5 -1t9.5 -2t10.5 -2q85 -17 124 -17q12 0 19 2h1q-10 28 -12 60q0 1 -1 1.5t-1 1.5v26q0 68 30 129.5t85 107.5q52 45 122.5 70.5
t149.5 25.5h22zM972.5 394q19.5 0 33.5 -14q13 -16 13 -34q0 -20 -13.5 -33.5t-33 -13.5t-32.5 14q-14 12 -14 33q0 20 13.5 34t33 14zM1006 379q-12 14 -33.5 14t-32.5 -14q-14 -14 -14 -33.5t13.5 -33t33 -13.5t33 13.5t13.5 33t-13 33.5zM732 394q19 0 33 -14
q14 -16 14 -34q0 -20 -14 -33.5t-33 -13.5t-33 14q-14 12 -14 33q0 20 14 34t33 14zM765 379q-12 14 -33 14t-33 -14q-14 -14 -14 -33.5t14 -33t33 -13.5t33 13.5t14 33t-14 33.5z" />
    <glyph glyph-name="zhongchouxiangmuicon" unicode="&#xe62a;" 
d="M157 322h293v-293h-293v293zM157 702h293v-292h-293v292zM157 702h269v-292h-269v292zM684 833l207 -207l-207 -207l-207 207zM362 388h-175q-34 0 -57.5 23.5t-23.5 56.5v176q0 33 23.5 56.5t57.5 23.5h91q9 0 15.5 -6.5t6.5 -15.5t-6.5 -15.5t-15.5 -6.5h-91
q-15 0 -26 -10.5t-11 -25.5v-176q0 -15 11 -25.5t26 -10.5h175q15 0 26 10.5t11 25.5v176q0 15 -11 25.5t-26 10.5q-9 0 -15.5 6.5t-6.5 15.5t6.5 15.5t15.5 6.5q33 0 57 -23.5t24 -56.5v-176q0 -33 -24 -56.5t-57 -23.5zM684 817l204 -204l-204 -204l-204 204zM538 322h292
v-293h-292v293zM157 324h269v-293h-269v293zM128 184v0q-9 0 -15.5 6.5t-6.5 15.5v57q0 34 23.5 57.5t57.5 23.5h175q9 0 15.5 -6.5t6.5 -15.5t-6.5 -15.5t-15.5 -6.5h-175q-15 0 -26 -10.5t-11 -26.5v-57q0 -9 -6.5 -15.5t-15.5 -6.5zM362 7h-175q-34 1 -57.5 24.5
t-23.5 56.5q0 9 6.5 15.5t15.5 6.5t15.5 -6.5t6.5 -15.5q0 -15 11 -26t26 -11h175q15 0 26 11t11 26v175q0 16 -11 26.5t-26 10.5q-9 0 -15.5 6.5t-6.5 15.5t6.5 15.5t15.5 6.5q33 0 57 -23.5t24 -57.5v-175q0 -33 -24 -56.5t-57 -24.5zM561 322h269v-293h-269v293zM801 7
h-175q-34 1 -57.5 24.5t-23.5 56.5v175q0 34 23.5 57.5t57.5 23.5h82q9 0 15.5 -6.5t6.5 -15.5t-6.5 -15.5t-15.5 -6.5h-82q-16 0 -26.5 -10.5t-10.5 -26.5v-175q0 -15 10.5 -26t26.5 -11h175q15 0 26 11t11 26v175q0 16 -11 26.5t-26 10.5q-9 0 -15.5 6.5t-6.5 15.5
t6.5 15.5t15.5 6.5q33 0 56.5 -23.5t24.5 -57.5v-175q-1 -33 -24.5 -56.5t-56.5 -24.5zM128 147zM106 147q0 -9 6.5 -15.5t15.5 -6.5t15.5 6.5t6.5 15.5t-6.5 15.5t-15.5 6.5t-15.5 -6.5t-6.5 -15.5zM684 351v0q-14 0 -30.5 7t-26.5 17l-124 124q-10 10 -17 26.5t-7 30.5
t7 30.5t17 26.5l117 117q6 6 15 6t15.5 -6.5t6.5 -15.5t-6 -15l-117 -117q-11 -11 -11 -26t11 -26l124 -124q11 -10 26 -10t26 10l124 124q11 11 11 26t-11 26l-115 115q-7 7 -7 16t6.5 15.5t15.5 6.5t16 -7l115 -115q10 -10 16.5 -26.5t6.5 -30.5t-6.5 -30.5t-16.5 -26.5
l-124 -124q-10 -10 -26.5 -17t-30.5 -7zM684 746zM662 746q0 -9 6.5 -15.5t15.5 -6.5t15.5 6.5t6.5 15.5t-6.5 15.5t-15.5 6.5t-15.5 -6.5t-6.5 -15.5zM187 454v0q-7 0 -11 4t-4 10v117q0 6 4 10.5t10.5 4.5t10.5 -4.5t4 -10.5v-117q0 -6 -4 -10t-10 -4zM340 62h-50
q-6 0 -10.5 4.5t-4.5 10.5t4.5 10t10.5 4h50v0q6 0 10 4.5t4 10.5v117q0 6 4.5 10.5t10.5 4.5t10.5 -4.5t4.5 -10.5v-117q0 -18 -13 -31t-31 -13zM245 77zM231 77q0 -6 4 -10.5t10 -4.5t10.5 4.5t4.5 10.5t-4.5 10.5t-10.5 4.5t-10 -4.5t-4 -10.5zM725 472v0q-6 0 -10 4
t-4 10t4 11l79 78q4 4 9 4q6 0 10.5 -4.5t4.5 -10.5q0 -5 -4 -9l-78 -79q-5 -4 -11 -4zM643 472v0q-6 0 -11 4l-78 79q-4 4 -4 9q0 6 4.5 10.5t10.5 4.5q5 0 9 -4l79 -78q4 -5 4 -11t-4 -10t-10 -4zM684 462zM670 462q0 -6 4 -10.5t10 -4.5t10.5 4.5t4.5 10.5t-4.5 10
t-10.5 4t-10 -4t-4 -10zM186 629zM172 629q0 -6 4 -10t10 -4t10.5 4t4.5 10t-4.5 10.5t-10.5 4.5t-10 -4.5t-4 -10.5z" />
    <glyph glyph-name="html-copy" unicode="&#xe606;" 
d="M112 815h800l-66 -759l-339 -104l-322 104zM752 586l20 115l-515 1l33 -345h335v-91l-112 -39l-117 41l-7 49l-93 -1l14 -122l197 -69l208 66l26 278h-364l-10 117h385zM752 586z" />
    <glyph glyph-name="kehuxiangqing-bodadianhua" unicode="&#xe6da;" 
d="M945 896h-866q-33 0 -56 -23t-23 -56v-866q0 -33 23 -56t56 -23h866q33 0 56 23t23 56v866q0 33 -23 56t-56 23zM691 261q-20 16 -36 18t-32 -6.5t-44 -31.5q-21 -18 -39 -13t-29.5 15t-11.5 13q-97 86 -137 118q-11 9 -14 20.5t0.5 22t9 19.5t10.5 14l5 5q3 1 8 4t14 13
t12 23t-4.5 36.5t-29 51t-42.5 38t-35 5t-24.5 -14.5t-16.5 -19l-5 -9q-29 -36 -29.5 -82.5t19.5 -88.5t45 -77.5t45 -57.5t20 -21q3 -3 8 -7.5t20 -17.5t31 -25.5t39 -28t44.5 -28.5t47 -24t48.5 -16.5t46.5 -5t42.5 10.5q137 54 14 147zM516 532q28 1 51.5 -10t37 -27
t21 -29t8.5 -18q-1 -4 -0.5 -14.5t1 -21.5t6 -21t14.5 -12q11 -3 19.5 3.5t10.5 15.5l3 8q-1 34 -13.5 64t-29 49t-37.5 33.5t-35 21.5t-25 10q-22 7 -41.5 2.5t-21.5 -18.5q-2 -35 31 -36zM629 702q-26 8 -50 2.5t-27 -22.5q-4 -22 6 -33t21 -11l12 -1q33 2 61.5 -11
t45 -32.5t25 -35t9.5 -22.5q1 -1 1.5 -12t2 -20.5t4.5 -21.5t8.5 -20.5t12.5 -11.5q13 -6 23 2.5t13 19.5l4 12q-2 42 -17 78.5t-35.5 59.5t-45.5 41t-42.5 26t-31.5 13z" />
    <glyph glyph-name="dianhua5" unicode="&#xe653;" 
d="M453 332q9 -9 21.5 -18.5t19.5 -15.5l8 -5q2 -1 4.5 -2.5t10 -5.5t15 -5.5t16.5 -1.5t17 5q13 8 27 17.5t19 13t11.5 6t11.5 1t14 -6.5q27 -15 46.5 -30t28 -25.5t13.5 -20.5t3.5 -15t-0.5 -8q-8 -28 -50.5 -43.5t-92.5 -2.5q-113 28 -196 110q-82 82 -110 196
q-12 49 3 92t43 50q4 0 9 1.5t14.5 -4t20 -13.5t25.5 -27.5t31 -46.5q4 -9 6 -14t-0.5 -12t-6 -12t-13 -18.5t-18.5 -27.5q-6 -14 -4 -28t9 -24l6 -10q18 -29 38 -49zM638 143q-24 0 -47 6q-56 14 -108 42q-54 30 -97 73v0q-43 43 -73 98q-29 51 -43 108q-14 55 4 105
q19 51 57 62q23 6 49 -10q36 -24 74 -90q11 -22 8 -38q-2 -11 -18 -33q-13 -19 -22 -33q-5 -8 -0.5 -20.5t9.5 -19.5l1 -1q17 -27 35.5 -45.5t45.5 -35.5l1 -1v0q26 -18 40 -10q15 9 34 23q22 15 33 17q16 4 37 -8q67 -37 90 -74q17 -26 10 -49v0q-10 -38 -61 -56
q-28 -10 -59 -10zM415 293q78 -78 186 -104q43 -11 78 1t40 30q1 5 -6 16q-17 28 -75 60q-7 4 -9 4q-3 0 -18 -11q-20 -14 -36 -24q-13 -8 -30 -8q-28 0 -54 19q-31 20 -52 41v0q-21 21 -41 52q-8 10 -13 23t-6.5 30.5t8.5 31.5q10 16 24 36q10 15 11 18q0 2 -4 9
q-33 57 -60 75q-11 7 -16 6q-18 -5 -30.5 -40t-1.5 -79q27 -108 105 -186zM512.5 -19q-83.5 0 -159.5 33q-74 31 -130.5 87.5t-87.5 129.5q-32 77 -32 160t32 159q31 74 87.5 130.5t130.5 87.5q76 32 159.5 32t159.5 -32q73 -31 129.5 -87.5t87.5 -130.5q33 -76 33 -159
t-33 -160q-31 -73 -87.5 -129.5t-129.5 -87.5q-76 -33 -159.5 -33zM512 759q-100 0 -184.5 -49.5t-134 -134t-49.5 -184.5t49.5 -185t134 -134.5t184.5 -49.5t185 49.5t134.5 134.5t49.5 185t-49.5 184.5t-134.5 134t-185 49.5z" />
    <glyph glyph-name="kehuxiangqing-bodadianhua1" unicode="&#xe6aa;" 
d="M945 896h-866q-33 0 -56 -23t-23 -56v-866q0 -33 23 -56t56 -23h866q33 0 56 23t23 56v866q0 33 -23 56t-56 23zM691 261q-20 16 -36 18t-32 -6.5t-44 -31.5q-21 -18 -39 -13t-29.5 15t-11.5 13q-97 86 -137 118q-11 9 -14 20.5t0.5 22t9 19.5t10.5 14l5 5q3 1 8 4t14 13
t12 23t-4.5 36.5t-29 51t-42.5 38t-35 5t-24.5 -14.5t-16.5 -19l-5 -9q-29 -36 -29.5 -82.5t19.5 -88.5t45 -77.5t45 -57.5t20 -21q3 -3 8 -7.5t20 -17.5t31 -25.5t39 -28t44.5 -28.5t47 -24t48.5 -16.5t46.5 -5t42.5 10.5q137 54 14 147zM516 532q28 1 51.5 -10t37 -27
t21 -29t8.5 -18q-1 -4 -0.5 -14.5t1 -21.5t6 -21t14.5 -12q11 -3 19.5 3.5t10.5 15.5l3 8q-1 34 -13.5 64t-29 49t-37.5 33.5t-35 21.5t-25 10q-22 7 -41.5 2.5t-21.5 -18.5q-2 -35 31 -36zM629 702q-26 8 -50 2.5t-27 -22.5q-4 -22 6 -33t21 -11l12 -1q33 2 61.5 -11
t45 -32.5t25 -35t9.5 -22.5q1 -1 1.5 -12t2 -20.5t4.5 -21.5t8.5 -20.5t12.5 -11.5q13 -6 23 2.5t13 19.5l4 12q-2 42 -17 78.5t-35.5 59.5t-45.5 41t-42.5 26t-31.5 13z" />
    <glyph glyph-name="instinct-" unicode="&#xe6c0;" 
d="M778 -116l227 840l-410 -243v0q0 -45 -21.5 -85t-61.5 -63.5t-86 -23.5t-84 22l-215 -129q96 -104 237.5 -125.5t268.5 52.5q1 0 2.5 1t1.5 2l2 -13zM512 332.5q-40 -23.5 -86 -23.5t-84 22l-185 -110q96 -61 209 -63.5t216 57.5q100 59 152.5 161t45.5 215l-185 -110
q0 -45 -21.5 -85t-61.5 -63.5zM256 476q0 45 22 84.5t61.5 63t85.5 24t84 -21.5l216 128q-97 104 -238.5 125.5t-268.5 -52.5q-124 -74 -173.5 -209.5t-4.5 -269.5zM339.5 623.5q39.5 23.5 85.5 24t84 -21.5l185 110q-95 60 -208 62.5t-217 -56.5q-100 -60 -152.5 -161.5
t-45.5 -214.5l185 110q0 45 22 84.5t61.5 63zM40 336v0q-8 0 -11 8q-47 139 5 279t178.5 215t274 53.5t247.5 -129.5q3 -3 3 -8q0 -7 -6 -10l-216 -129q-3 -1 -6 -1t-6 1q-37 21 -79.5 20.5t-78.5 -22t-56.5 -58.5t-20.5 -79v0q0 -7 -6 -11l-216 -128q-2 -1 -6 -1zM425 872
q-108 0 -200 -55q-116 -69 -166 -195.5t-12 -255.5l197 117q2 46 25.5 86.5t63.5 64.5t87 25.5t89 -19.5l196 117q-56 56 -129 85.5t-151 29.5zM502 523.5q19 -31.5 10 -67t-41 -54.5t-67.5 -10t-54 41t-9.5 67.5t40.5 54t67 9.5t54.5 -40.5zM349 433q-18 32 -9 67.5
t40.5 54t67 9.5t54.5 -41zM426 377q-13 0 -25 3q-17 5 -35 18.5t-27 28.5q-14 23 -14 51q0 13 3 25q4 17 17.5 35t28.5 27q36 21 76.5 11t61.5 -46q15 -24 15 -52q0 -12 -4 -25q-4 -17 -17.5 -35t-28.5 -27q-24 -14 -51 -14zM425 555v0q-20 0 -38 -11q-12 -7 -22 -20.5
t-14 -26.5q-2 -9 -2 -19q0 -21 11 -39q6 -11 20 -21.5t27 -13.5q9 -2 19 -2q21 0 39 10q11 7 21.5 21t13.5 26q2 10 2 19q0 21 -10 39q-10 16 -29 27t-37 11h-1zM172 316v0q-5 0 -8.5 3.5t-3.5 8.5q0 7 6 10l108 64q3 2 6 2q5 0 8.5 -3.5t3.5 -8.5q0 -7 -6 -11l-108 -64
q-2 -1 -6 -1zM110 279q-5 0 -8.5 3.5t-3.5 8.5v0q0 5 4 9q8 8 17 0q3 -4 3 -9t-3.5 -8.5t-8.5 -3.5v0zM54 245q-5 0 -9 3.5t-4 8.5t4 9q9 9 17 0q4 -4 4 -9t-3.5 -8.5t-8.5 -3.5zM571 552v0q-5 0 -8.5 4t-3.5 9q0 6 6 10l108 64q3 2 6 2q5 0 8.5 -3.5t3.5 -8.5q0 -7 -6 -11
l-108 -64q-3 -2 -6 -2zM741 653q-5 0 -8.5 3.5t-3.5 8.5t4 9q8 9 17 0q3 -4 3 -9t-3.5 -8.5t-8.5 -3.5zM798 687v0q-5 0 -8.5 3.5t-3.5 8.5q0 7 5 10l164 98q3 1 6 1q5 0 8.5 -3.5t3.5 -8.5q0 -7 -5 -10l-164 -97q-3 -2 -6 -2zM778 -128v0q-7 0 -10 6l-139 234v1
q-126 -70 -270 -47t-241 128q-4 4 -4 8q0 7 6 11l216 128q3 2 6 2t6 -2q37 -20 79.5 -19.5t78.5 21.5t56.5 58t20.5 79v1q0 6 6 10l409 243q3 9 12 9q5 0 8.5 -3.5t3.5 -8.5q0 -7 -6 -11l-226 -839q-3 -9 -12 -9v0zM651 123l123 -208l211 783l-378 -224q-1 -47 -25 -87.5
t-64 -64.5t-87 -25t-88 20l-197 -117q95 -95 229.5 -112t251.5 51l4 3q3 2 6 2q11 0 13 -11zM743 140q-7 0 -11 6l-84 161q-2 2 -2 5q0 5 3.5 9t8.5 4q3 0 5 -1l80 -32l80 32q4 6 11 6q5 0 8.5 -3.5t3.5 -8.5q0 -8 -7 -11l-85 -161q-4 -6 -11 -6zM684 289l59 -111l59 111
l-54 -21q-3 -1 -5 -1t-4 1z" />
    <glyph glyph-name="icon-infor" unicode="&#xe600;" 
d="M51 754q-1 0 -1 -1l-0.5 -0.5l-0.5 -0.5zM512 295q31 0 53 22l229 230q5 5 5 12.5t-5 13t-13 5.5t-13 -5l-230 -229q-11 -11 -26 -11t-26 11l-393 392q-21 -5 -27 -26l393 -393q22 -22 53 -22zM822.5 601.5q5.5 -5.5 13 -5.5t13.5 5l109 109q-6 21 -27 27l-109 -109
q-5 -6 -5 -13.5t5.5 -13zM975 752l-0.5 0.5l-0.5 0.5l-0.5 0.5l-0.5 0.5q2 -1 2 -2zM975 752l-2 2q-21 21 -51 21h-820q-30 0 -51 -21q-1 0 -2 -1v-1q-21 -22 -21 -51v-634q0 -30 22 -52t52 -22h820q30 0 52 22t22 52v634q0 29 -21 51zM959 67q0 -15 -11 -26t-26 -11h-820
q-15 0 -26 11t-11 26v634q0 4 1 9q6 21 27 26q5 2 9 2h820q4 0 9 -2q21 -5 27 -26q1 -5 1 -9v-634v0z" />
    <glyph glyph-name="shoujihao" unicode="&#xe618;" 
d="M511 377h-21q-4 0 -4 3v34q0 3 4 3h21q3 0 3 -3v-34q0 -3 -3 -3zM511 415q1 0 1 -1v-34q0 -1 -1 -1h-22q-1 0 -1 1v34q0 1 1 1h22zM511 417h-22q-3 0 -3 -3v-34q0 -3 3 -3h22q3 0 3 3v34q0 3 -3 3zM508 387h-16q-1 0 -1 1v23q0 1 1 1h16q1 0 1 -1v-23q0 -1 -1 -1z
M508 411v-23h-16v23h16zM508 412h-16q-1 0 -1 -1v-23q0 -1 1 -1h16q1 0 1 1v23q0 1 -1 1zM500 383zM498 383.5q0 -1.5 2 -1.5t2 1.5t-2 1.5t-2 -1.5zM744 -64h-463q-34 0 -58.5 24t-24.5 58v732q0 33 24.5 57.5t58.5 24.5h463q33 0 57.5 -24.5t24.5 -57.5v-732
q0 -34 -24.5 -58t-57.5 -24zM758 787q10 0 16.5 -6.5t6.5 -16.5v-761q0 -9 -6.5 -16t-16.5 -7h-492q-9 0 -16 7t-7 16v761q0 10 7 16.5t16 6.5h492zM758 832h-492q-28 0 -47.5 -20t-19.5 -48v-761q0 -28 19.5 -47.5t47.5 -19.5h492q28 0 48 19.5t20 47.5v761q0 28 -20 48
t-48 20zM676 160h-327q-16 0 -27.5 11t-11.5 27v484q0 15 11.5 26.5t27.5 11.5h327q15 0 26.5 -11.5t11.5 -26.5v-484q0 -16 -11.5 -27t-26.5 -11zM691 697v-515h-358v515h358zM691 720h-358q-9 0 -16 -6.5t-7 -16.5v-515q0 -9 7 -15.5t16 -6.5h358q10 0 16.5 6.5t6.5 15.5
v515q0 10 -6.5 16.5t-16.5 6.5zM512 75zM474 74.5q0 -15.5 11 -26.5t27 -11t27 11t11 26.5t-11 27t-27 11.5t-27 -11.5t-11 -27z" />
    <glyph glyph-name="dianhuahaoma" unicode="&#xe66d;" horiz-adv-x="1033" 
d="M1005 58q-6 18 -30.5 32.5t-80.5 37.5l-10 5l-18 9q-31 13 -47.5 18.5t-40 7t-45 -9.5t-44.5 -35q-26 -21 -50.5 -29t-38.5 -6.5t-32 7.5q-31 16 -127 120.5t-115 149.5q-14 42 -14 61t14 32v10l9 9q15 15 22 25t16 31t6 51t-16 70q-5 12 -15.5 37.5t-16 38t-14.5 29
t-18 24.5t-20 11h-9q-56 0 -168 -140q-7 -14 -7 -53.5t7 -67.5q3 -9 9 -25.5t29.5 -67t52.5 -99t79.5 -114t108 -121.5t141 -112t176.5 -94q21 -7 49 -8t62.5 9.5t66.5 26.5t62 43t49 59q35 12 18 28zM1024 67q-6 26 -35 42.5t-95 41.5l-19 10q-60 25 -105.5 25t-89.5 -44
q-62 -50 -94 -19q-23 8 -118 111.5t-114 149.5q-4 9 -6 16t-3.5 12.5t-1.5 11v8t2 7.5t2.5 6.5t3 6.5t3.5 6v10l9 9q15 15 23.5 26.5t19 35t9 57.5t-14.5 77q-2 6 -8.5 23.5t-9 24t-8.5 21.5t-9.5 21t-10 17t-11.5 16t-12.5 11.5t-15.5 9.5t-17 5q-73 14 -196 -149
q-12 -24 -10 -73.5t10 -66.5q4 -10 10 -26.5t31 -68t55 -101t82 -117t111.5 -125t145 -116t180.5 -98.5q18 -9 56 -9q70 0 145.5 39t114.5 110q0 28 -9 46zM707 -109q-93 38 -176 93.5t-141.5 113.5t-107.5 120t-80 115.5t-52 97t-30 68t-8 25.5q-22 110 0 121
q111 139 167 139h10q47 -12 83 -139q13 -39 14.5 -71t-8 -53.5t-16.5 -31.5t-18 -21l-9 -10v-9q-6 -12 -8.5 -20t-1.5 -27.5t10 -45.5q20 -46 116 -150.5t126 -119.5q56 -37 121 28q23 20 46 29.5t47.5 7.5t40 -5.5t43.5 -12.5l19 -10q3 -1 9 -4q39 -16 56 -24.5t34.5 -21
t21.5 -24.5q0 -6 -0.5 -10t-2.5 -11.5t-7 -15.5q-23 -37 -63 -66.5t-82 -43.5t-84 -18.5t-69 7.5z" />
    <glyph glyph-name="dianhuatubiao-" unicode="&#xe693;" 
d="M675 184l10 10q14 15 21.5 22t21.5 17t24 12.5t26.5 3t32.5 -6t38 -19.5t47 -33q23 -18 37 -37t21 -33.5t4.5 -32t-6 -28t-16.5 -27.5t-20 -24t-24 -23.5t-22 -21.5q-19 -20 -57.5 -24t-93 10t-117 43.5t-135 82t-141.5 121.5t-122.5 141.5t-83.5 134.5t-44 116.5t-10 93
t23 58.5q5 5 21.5 22t23.5 24t24 20.5t27.5 16.5t28 6t32 -4t33 -21t37.5 -37q20 -25 33 -47t20 -38t6 -32t-3 -26.5t-12.5 -24.5t-17.5 -21.5t-21 -21.5l-10 -10q-49 -50 133 -231t231 -131z" />
    <glyph glyph-name="bodadianhua" unicode="&#xe60f;" 
d="M779 -60q63 0 108 23q121 57 131 108q4 17 -2.5 36t-19.5 32q-14 18 -38.5 43.5t-66 54t-72.5 28.5q-48 0 -74 -35q-11 -11 -45 -34q-34 -11 -63 -11q-61 0 -125 40.5t-106 103t-42 123.5q0 63 46 108q34 26 34 69q0 19 -11 41.5t-29 43.5t-33.5 36.5t-33 31.5t-18.5 17
q-32 32 -74 23q-59 -12 -108 -131q-23 -45 -23 -114q2 -125 56.5 -242t143.5 -202.5t211.5 -138t253.5 -54.5zM666 -60q62 0 108 23q120 57 131 108q4 17 -3 36t-20 32q-13 18 -38 43.5t-66.5 54t-72.5 28.5q-48 0 -74 -35q-11 -11 -45 -34q-34 -11 -63 -11q-61 0 -125 40.5
t-106 103t-42 123.5q0 63 46 108q34 26 34 69q0 19 -11 41.5t-29 43.5t-33.5 36.5t-33 31.5t-18.5 17q-31 32 -74 23q-59 -12 -108 -131q-23 -45 -23 -114q2 -125 56.5 -242t143.5 -202.5t211.5 -138t254.5 -54.5zM711 213q23 0 67 -35.5t75 -72.5q17 -17 17 -28
q0 -3 -1.5 -6.5t-8.5 -11t-18 -16t-31.5 -21t-48.5 -25.5q-42 -17 -91 -17h-5q-120 2 -232 51t-195.5 129t-134.5 188.5t-53 223.5q0 45 17 96q21 42 40 67t27 30.5t13 5.5q11 0 34 -12q40 -29 77 -71t37 -65q0 -12 -4.5 -19t-18.5 -21q-34 -34 -45 -57q-18 -34 -18 -79
q0 -72 48.5 -144.5t123.5 -118t147 -45.5h6q37 0 79 17q46 23 63 40q5 10 11.5 13.5t22.5 3.5zM666 -60q62 0 108 23q120 57 131 108q4 17 -3 36t-20 32q-13 18 -38 43.5t-66.5 54t-72.5 28.5q-48 0 -74 -35q-11 -11 -45 -34q-34 -11 -63 -11q-61 0 -125 40.5t-106 103
t-42 123.5q0 63 46 108q34 26 34 69q0 19 -11 41.5t-29 43.5t-33.5 36.5t-33 31.5t-18.5 17q-31 32 -74 23q-59 -12 -108 -131q-23 -45 -23 -114q2 -125 56.5 -242t143.5 -202.5t211.5 -138t254.5 -54.5z" />
    <glyph glyph-name="dianhua6" unicode="&#xe604;" 
d="M184 763q-23 0 -40 -15q-26 -18 -50 -39q-41 -34 -62.5 -75.5t-16.5 -76.5q9 -70 83 -195t172 -223q97 -97 222.5 -170.5t197.5 -83.5q68 -9 148 69q30 29 49 66q6 12 6 25q0 8 -2 16l-12 17q-18 19 -38 36q-38 33 -75 59q-18 13 -45 32l-20 11q-5 1 -10 1t-10 -1
q-9 -4 -14 -14q-12 -15 -21 -33q-3 -5 -10 -20q-10 -22 -16 -33q-7 -14 -23.5 -27.5t-31.5 -18.5q-10 -3 -21 -3q-20 0 -37 11q-39 22 -88.5 59t-80.5 68q-35 32 -75 85t-60 96q-6 14 -6 29q0 19 11.5 39t27.5 30q8 4 19.5 9.5t13.5 6.5q14 5 27 13q17 9 33 20q9 6 13 17
t-2 25t-29 51q-4 7 -6 10q-33 56 -38 63q-23 33 -57 56q-12 7 -26 8zM707 -128h-9.5h-9.5q-73 10 -201 85t-227 173q-98 98 -173.5 225.5t-85.5 199.5q-5 38 17.5 82.5t65.5 82.5q25 21 52 39q21 17 47 17h1q18 -1 33 -11t33 -27.5t28 -32.5q7 -9 27 -40l14 -23q1 -3 4 -7
q25 -41 31.5 -56.5t1.5 -30.5t-18 -24q-16 -12 -33 -21q-14 -8 -28 -14q-18 -7 -33 -15q-14 -8 -23.5 -25.5t-9.5 -32.5q0 -13 5 -24q20 -42 58.5 -94t72.5 -83q32 -30 80.5 -67t86.5 -59q14 -9 31 -9q9 0 17 3q13 4 27 16t20 24q7 13 16 33q5 10 11 20q9 19 21 36
q7 13 20 18q7 3 15 3t15 -3l21 -11q20 -13 46 -31q11 -7 23 -17t28.5 -24.5t24.5 -20.5q21 -18 39 -38l13 -17q5 -12 5 -25q0 -16 -8 -30q-20 -39 -52 -70q-76 -74 -140 -74zM181 750q-17 -2 -29 -13q-26 -17 -49 -38q-39 -32 -59 -70.5t-16 -69.5q9 -69 82 -191t169 -217.5
t219.5 -168.5t193.5 -82q61 -9 137 65q28 28 46 63q5 11 5 22v7l-12 16q-16 18 -35 33q-39 34 -74 58q-26 18 -45 30l-19 11q-2 1 -4.5 1t-4.5 -1q-5 -2 -7 -7v-2q-11 -16 -19 -33q-3 -5 -9 -18q-8 -16 -17 -35q-9 -16 -27.5 -31.5t-36.5 -20.5q-11 -4 -24 -4q-24 0 -44 13
q-39 22 -89.5 61t-82.5 70q-36 33 -76.5 87t-61.5 98q-6 16 -6 33q0 22 13.5 45.5t31.5 35.5q19 9 35 15q12 5 24 12h3q15 8 30 19q6 4 9 11q2 9 -4.5 21.5t-30.5 51.5l-14 23l-11 16.5l-7 10.5l-4 6l-4 6q-22 32 -54 53q-9 7 -20 8h-2zM977 343q-14 1 -24.5 11t-10.5 25v0
q0 117 -55 216.5t-150 157t-206 57.5q-15 1 -25 11t-10 25v0v1q0 15 10 25t25 11q97 0 186 -40t153.5 -107.5t102.5 -160.5t38 -196v0q0 -15 -10 -25t-24 -11zM977 330q-20 0 -34 14.5t-14 34.5v0q0 114 -53.5 210t-145 152t-199.5 56q-20 1 -34 15t-14 34v1v0q0 20 14 34.5
t34 14.5q100 0 191.5 -41t157.5 -110t105 -164.5t39 -200.5v-1q0 -20 -14 -34t-33 -15zM531 870q-9 -1 -15.5 -7.5t-6.5 -15.5v-0.5v-0.5q0 -9 6.5 -15.5t15.5 -6.5q115 -1 212.5 -60.5t154.5 -161.5t57 -222v-3q0 -9 6.5 -15.5t15.5 -6.5t15 6.5t6 15.5v3q0 99 -37 190
t-99.5 156.5t-149 104.5t-181.5 39zM846 343q-14 1 -24 11t-10 25v0v7q0 116 -82.5 200.5t-198.5 87.5q-15 0 -26 10.5t-11 25.5t11 25.5t26 10.5q95 -2 175.5 -51t127.5 -131t47 -177v-7v-1q0 -15 -10.5 -25t-24.5 -11zM846 330q-20 0 -34 14.5t-14 34.5v0q1 4 1 7
q0 111 -78.5 191.5t-189.5 82.5q-21 0 -35.5 14.5t-14.5 35t14.5 35t35.5 14.5q98 -3 181.5 -53.5t132 -135.5t48.5 -183v-8v0q0 -20 -14 -34t-33 -15zM531 731q-9 -1 -15 -7.5t-6 -15t6 -15.5t15 -8q121 -3 207 -91.5t86 -209.5q0 -2 -1 -4v-3q0 -9 6.5 -15.5t15.5 -6.5
t15.5 6.5t6.5 15.5v3v6q0 91 -45 169.5t-122.5 126t-168.5 49.5zM692 343q-14 1 -24.5 11t-10.5 25v0v3q0 52 -37 90t-89 39q-15 0 -25.5 10.5t-10.5 25.5t10.5 26t25.5 11q80 -3 137 -61.5t57 -138.5v-4v-1q0 -14 -10 -24.5t-23 -11.5zM692 330q-20 0 -34 14.5t-14 34.5v0
v3q0 47 -33 81t-80 35q-20 0 -34.5 14.5t-14.5 35t14.5 35t34.5 14.5q87 -2 148 -64.5t61 -148.5v-5v0q0 -20 -14 -34.5t-34 -14.5zM531 571q-9 -1 -15 -8t-6 -15.5t6 -15t15 -8.5q57 -1 98 -42.5t41 -99.5q0 -1 -0.5 -2.5t-0.5 -2.5q0 -9 6.5 -15.5t15.5 -6.5t15.5 6.5
t6.5 15.5v3v4q0 75 -53.5 130t-128.5 57z" />
    <glyph glyph-name="dianhuazixunhong" unicode="&#xe6b8;" 
d="M642 -128h-1q58 0 105 27q44 25 81 82q1 1 6 11q26 46 -0.5 110.5t-93.5 117.5q-78 61 -150 61q-53 0 -78 -35q-9 -6 -15 -6q-4 0 -8 5l-1 1q-39 50 -70 106q-29 51 -51 105q-3 14 0 19q2 1 4 1q38 1 65 33q25 29 35 77.5t3 105.5q-11 87 -53.5 145t-94.5 58h-2
q-4 0 -9 -1q-65 3 -116 -26q-78 -45 -106.5 -146t-3 -233.5t101.5 -266.5q89 -158 213.5 -254.5t238.5 -96.5zM589 223q52 0 114 -49q49 -38 72 -83.5t10 -68.5q-1 -3 -5 -9q-24 -43 -62 -64q-34 -19 -76 -19q-97 0 -209.5 89.5t-192.5 231.5q-65 116 -90.5 234.5t-5.5 208
t82 125.5q38 21 88 18h1q3 0 6 1h4q27 0 55 -44.5t36 -108.5q6 -43 -1 -80.5t-23 -57.5q-11 -12 -23 -12q-28 0 -47 -23q-21 -26 -12 -69q0 -2 1 -5q24 -59 55 -114q35 -61 77 -116l4 -4q21 -21 49 -21q30 0 55 21q3 2 5 6q8 13 33 13zM680 417q10 0 18.5 7t9.5 17q2 9 2 18
q0 32 -18 58q-10 14 -29 26.5t-36 15.5h-5q-10 0 -18.5 -7t-10.5 -17v-5q0 -10 7 -18.5t17 -9.5q17 -4 27 -18q8 -11 8 -25q0 -4 -1 -7v-6q0 -10 7 -18t17 -10q2 -1 5 -1zM778 419q10 0 18.5 7t10.5 17q13 72 -29 133t-114 74h-5q-10 0 -18.5 -7t-10.5 -17v-5q0 -10 7 -18.5
t16 -9.5q49 -9 77 -50t19 -89v-6q0 -10 7 -18t17 -10q2 -1 5 -1zM890 388q10 0 18.5 7t10.5 16q23 125 -49 228.5t-196 126.5q-2 1 -5 1q-10 0 -18.5 -7t-10.5 -17v-5q0 -10 7 -18.5t17 -10.5q100 -18 158 -102.5t40 -184.5q-1 -3 -1 -5q0 -10 7 -18.5t17 -10.5h5z" />
    <glyph glyph-name="css3-copy" unicode="&#xe608;" 
d="M202 768h752l-133 -666l-402 -134l-349 134l36 178h148l-14 -74l210 -80l244 80l34 170h-604l28 148h605l19 96h-604z" />
    <glyph glyph-name="xiangmuguanli" unicode="&#xe665;" 
d="M904 589v-25h-395q-15 0 -26 25l-24 49q-1 2 -3.5 6t-4 7t-2.5 5.5t0.5 4t5.5 1.5h425q10 0 17 -7t7 -17v-49zM170 -1q0 32 23 55t55.5 23t55.5 -23t23 -55h-157zM864 -13h-704q-21 0 -35.5 14.5t-14.5 35.5v643q0 21 14.5 35.5t35.5 14.5h228q29 0 60 -44l1 -1l56 -108
h399q10 0 10 -10v-530q0 -21 -14.5 -35.5t-35.5 -14.5zM130 488v-451q0 -12 9 -21t21 -9h704q12 0 21 9t9 21v520h-394q-3 0 -6 2l-1 1q-3 1 -4 3l-58 112q-25 35 -43 35h-228q-12 0 -21 -9t-9 -21v-192zM823 156q0 -16 -11.5 -28t-28.5 -12h-268q-16 0 -28 12t-12 28v175
q0 17 12 28.5t28 11.5h268q17 0 28.5 -11.5t11.5 -28.5v-175zM635 281h-100q-10 0 -10 10t10 10h100q10 0 10 -10t-10 -10zM695 225h-160q-10 0 -10 10t10 10h160q10 0 10 -10t-10 -10zM755 170h-220q-10 0 -10 10t10 10h220q10 0 10 -10t-10 -10zM810 741zM780 741
q0 -12 9 -21t21.5 -9t21 9t8.5 21t-8.5 21t-21 9t-21.5 -9t-9 -21zM813 692q-5 0 -10 2q-15 4 -22 17q-4 8 -4 17q0 5 1 10q4 12 13.5 19t21.5 7q5 0 10 -1q14 -4 21 -17q5 -8 5 -18q0 -5 -2 -10q-3 -11 -12.5 -18.5t-21.5 -7.5zM813 752q-18 0 -23 -17q-1 -3 -1 -7
q0 -6 3 -11q4 -9 14 -12q3 -1 7 -1q18 0 23 18q1 3 1 6q0 6 -3 12q-5 9 -15 11q-3 1 -6 1zM388 625v0q-2 0 -3 1l-44 25q-3 1 -3 5q0 6 6 6q2 0 3 -1l44 -24q3 -2 3 -6q0 -6 -6 -6v0zM354 616q-6 0 -6 6v3l25 43q2 3 5 3q6 0 6 -6q0 -1 -1 -3l-24 -43q-2 -3 -5 -3v0z
M162 268q-5 0 -8 3t-3 7.5t3 8t8 3.5t8 -3.5t3 -8t-3 -7.5t-8 -3zM162 284q-5 0 -5 -5t5 -5t5 5t-5 5zM296 637zM280 636.5q0 -6.5 4.5 -11.5t11.5 -5t11.5 5t4.5 11.5t-4.5 11.5t-11.5 5t-11.5 -5t-4.5 -11.5zM265 647q-2 0 -3 1l-16 15q-1 1 -1 3t1 3t2.5 1t2.5 -1l16 -15
q2 -1 2 -3q0 -4 -4 -4zM249 647q-4 0 -4 4q0 1 1 2l15 16q1 2 3 2q4 0 4 -4q0 -2 -1 -3l-15 -16q-1 -1 -3 -1v0zM163 305q-6 0 -6 6v46q0 6 6 6t6 -6v-46q0 -6 -6 -6zM163 379q-6 0 -6 6v80q0 6 6 6t6 -6v-80q0 -6 -6 -6z" />
    <glyph glyph-name="shoujirenzheng" unicode="&#xe643;" 
d="M512 384zM78 384q0 -88 34.5 -168.5t92.5 -138.5t138.5 -92.5t168.5 -34.5t168.5 34.5t138.5 92.5t92.5 138.5t34.5 168.5t-34.5 168.5t-92.5 138.5t-138.5 92.5t-168.5 34.5t-168.5 -34.5t-138.5 -92.5t-92.5 -138.5t-34.5 -168.5zM512 -64q-91 0 -174 35.5t-143 95.5
t-95.5 143t-35.5 174t35.5 174t95.5 143t143 95.5t174 35.5t174 -35.5t143 -95.5t95.5 -143t35.5 -174t-35.5 -174t-95.5 -143t-143 -95.5t-174 -35.5zM512 804q-114 0 -211 -56t-153 -153t-56 -211t56 -211t153 -153t211 -56t211 56t153 153t56 211t-56 211t-153 153
t-211 56zM512 384zM138 384q0 -102 50 -188t136 -136t188 -50t188 50t136 136t50 188t-50 188t-136 136t-188 50t-188 -50t-136 -136t-50 -188zM614 282l-38 -31l-197 197l32 38l-84 110q-5 -3 -10 -7q-36 -37 -3.5 -121.5t115 -167t167 -115t121.5 3.5q4 5 7 10zM664 157
q-33 0 -73 16q-87 33 -172 118t-118 172q-36 93 7 135q5 6 11 10q4 2 8 2q7 0 11 -5l84 -110q2 -4 2 -9q0 -4 -3 -8l-23 -29l179 -179l28 23q4 3 9 3t8 -3l110 -83q6 -5 6 -11q0 -4 -2 -8q-4 -6 -10 -11q-22 -23 -62 -23zM325 576q-27 -31 1 -103q32 -82 112.5 -162.5
t162.5 -112.5q72 -28 103 -2l-90 69l-30 -24q-3 -3 -8 -3q-6 0 -10 4l-196 196q-4 4 -4 10q0 5 3 8l24 31z" />
    <glyph glyph-name="youxiangzhangdan" unicode="&#xe61d;" 
d="M358 297l-312 -343q-8 -8 -8 -17.5t8 -13.5q25 -12 31 0l312 343q8 8 8 17.5t-8 13.5q-8 8 -17.5 8t-13.5 -8zM635 266l312 -343q8 -7 17.5 -7t13.5 7q8 8 8 17.5t-8 13.5l-312 343q-8 8 -17.5 8t-13.5 -8q-15 -15 0 -31zM502 189q4 -3 10 -3t10 3l430 241v-466
q0 -8 -6 -14t-14 -6h-840q-8 0 -14 6t-6 14v466zM56 492q-11 3 -20.5 -3t-9.5 -18v-507q0 -28 20.5 -50t50.5 -22h840q28 0 50 21t22 51v507q0 12 -12.5 20t-23.5 1l-461 -256zM56 451l174 71q8 4 11 13.5t-0.5 17.5t-13 11t-17.5 -1l-174 -71q-8 -4 -11 -14t0.5 -17.5
t13.5 -10.5t17 1zM835 507l133 -56q7 -4 17 -1t13.5 10.5t0.5 17.5t-11 14l-133 56q-8 4 -17.5 0.5t-13.5 -10.5q-7 -8 -4 -17.5t15 -13.5zM241 379v425q0 11 7 18t18 7h528q11 0 18 -7t7 -18v-405q0 -11 7 -18t18.5 -7t18.5 7t7 18v405q0 31 -20.5 51.5t-50.5 20.5h-533
q-30 0 -50.5 -20.5t-20.5 -51.5v-425q0 -12 7 -19t18 -7t16 8t5 18zM445 671h262q11 0 18 7t7 18q0 21 -31 21h-261q-11 0 -18 -7t-7 -19q0 -20 30 -20zM333 568h368q12 0 19 7t7 18.5t-7 19t-19 7.5h-368q-21 -11 -21 -31q0 -8 6.5 -14.5t14.5 -6.5zM333 466h368q12 0 19 7
t7 19q0 20 -26 20h-368q-12 0 -19 -7t-7 -19q0 -10 8 -15t18 -5z" />
    <glyph glyph-name="duanxindianhua" unicode="&#xe647;" horiz-adv-x="1090" 
d="M553 285q22 20 53 33.5t53 10.5q47 -4 81 -46l96 -122q32 -42 28 -90t-43 -85q-5 -4 -13.5 -11.5t-13.5 -11.5l-3 -3q-6 -6 -16.5 -15t-14.5 -14l-4 -3q-57 -55 -137 -48q-2 0 -6 1t-5 1q-78 13 -174 71q-165 105 -282 282q-91 139 -126 279q-23 92 -11 164q9 63 58 106
l71 64q39 34 87 31q50 -5 80 -44q4 -6 9 -12.5t12 -15t12 -13.5l62 -81q32 -42 22 -95.5t-53 -93.5l-7 -5q-3 -3 -7.5 -6.5t-5.5 -4.5q-20 -20 -35 -30q15 -37 35 -68q63 -100 137 -160q1 0 4.5 -3t7.5 -5zM92 761q-37 -33 -47 -88q-10 -65 11 -150q35 -137 122 -269
q115 -173 273 -273q85 -54 160 -68q5 0 8 -1q70 -5 113 38l3 3q15 15 33 30l3 3q5 4 13.5 11.5t13.5 11.5q30 29 33 64.5t-22 66.5l-96 122q-24 32 -57 34q-15 2 -39 -9.5t-42 -26.5l-68 -61l-10 7q-1 0 -3 1q-2 2 -3 2q-2 2 -4 2q-3 2 -5.5 3.5l-5 3t-4.5 2.5
q-82 67 -143 169q-30 47 -42 86l-3 11l8 7q23 20 42 38l3 3l4 4t4 5l7 5q35 31 43 72t-15 71l-63 81q-6 8 -31 41q-23 31 -58 33q-34 3 -64 -23zM347 173q52 -65 124 -118q5 -3 12 -2t11 6t2.5 12t-5.5 11q-70 50 -118 110q-4 6 -11 6.5t-12 -4.5q-12 -12 -3 -21zM512 27
q25 -15 45 -25q6 -2 12.5 0.5t8.5 8.5t0 12.5t-7 8.5q-26 13 -41 23q-13 8 -23 -5q-8 -13 5 -23zM702 404l21 -27q11 -13 28.5 -14.5t29.5 9.5l27 22q73 5 127 57.5t61 127.5q7 84 -47 148t-138 72l-45 3q-84 7 -148 -47t-71 -138q-6 -74 38.5 -135t116.5 -78zM671 582
q-11 1 -18 9t-6 19q2 10 9.5 17.5t17.5 5.5q10 -1 17 -9t6 -18.5t-8.5 -17t-17.5 -6.5zM770 574q-11 1 -18 9t-5 19q1 10 8.5 17t17.5 6t17 -9t6 -19q0 -10 -7.5 -17t-18.5 -6zM870 566q-10 1 -17 9t-6 19q2 10 9.5 17t17.5 6t17 -9t6 -19t-9 -18t-18 -5zM922 851l-9 -38
q-3 -17 14 -19q17 -3 19 13l9 38q2 17 -14 20q-6 2 -11.5 -2t-7.5 -12zM1057 741l-38 -9q-7 -1 -10.5 -7t-2.5 -14q1 -7 7.5 -10.5t13.5 -2.5l38 8q8 1 11.5 7.5t2.5 14.5q-2 7 -8.5 10.5t-13.5 2.5zM1006 817l-27 -27q-5 -5 -5 -12.5t5 -12t12.5 -4.5t12.5 5l27 26
q5 5 5 12.5t-5 12.5t-12.5 5t-12.5 -5z" />
    <glyph glyph-name="shoujihao1" unicode="&#xe625;" 
d="M228 236v485q0 24 17 41.5t41 17.5h453q24 0 40.5 -17.5t16.5 -41.5v-485h-568zM739 830h-453q-45 0 -76.5 -32t-31.5 -77v-673q0 -41 27 -72t67 -36q7 -1 14 -1h453q9 0 17 2h4q1 1 2 1h2l6 2q2 1 3 1q7 2 14 6q2 1 5 3q2 1 3 2q24 14 37.5 39t13.5 53v673
q0 45 -31.5 77t-75.5 32zM796 48q0 -18 -9.5 -32.5t-25.5 -21.5q-10 -5 -22 -5v0h-453v0q-12 0 -23 5q-15 7 -25 21.5t-10 32.5v138h568v-138zM228 236v485q0 24 17 41.5t41 17.5h453q24 0 40.5 -17.5t16.5 -41.5v-485h-568zM228 48q0 -18 10 -32.5t25 -21.5q11 -5 23 -5v0
h453v0q12 0 22 5q16 7 25.5 21.5t9.5 32.5v138h-568v-138zM512 135q19 0 32.5 -13.5t13.5 -33t-13.5 -33t-32.5 -13.5t-32.5 13.5t-13.5 33t13.5 33t32.5 13.5z" />
  </font>
</defs>
</svg>
