<?xml version="1.0" standalone="no"?><!DOCTYPE svg PUBLIC "-//W3C//DTD SVG 1.1//EN" "http://www.w3.org/Graphics/SVG/1.1/DTD/svg11.dtd"><svg t="1493486106491" class="icon" style="" viewBox="0 0 1024 1024" version="1.1" xmlns="http://www.w3.org/2000/svg" p-id="4000" xmlns:xlink="http://www.w3.org/1999/xlink" width="200" height="200"><defs><style type="text/css"></style></defs><path d="M769.6 971.2l112-110.4h-112z" fill="#FFFFFF" p-id="4001"></path><path d="M129.6 992h608v-163.2h156.8V32H129.6z" fill="#FFFFFF" p-id="4002"></path><path d="M97.6 0v1024h665.6l163.2-163.2V0H97.6z m672 971.2v-112h112l-112 112z m124.8-142.4h-156.8V992h-608V32h764.8v796.8z" fill="" p-id="4003"></path><path d="M676.8 275.2l-233.6 312-105.6-97.6-41.6 49.6 155.2 144 275.2-368z" fill="#F2385A" p-id="4004"></path><path d="M672 228.8L440 539.2l-104-96-83.2 97.6 204.8 188.8 315.2-420.8-100.8-80zM296 539.2l41.6-49.6 105.6 97.6 233.6-312 49.6 40-275.2 368-155.2-144z" fill="" p-id="4005"></path></svg>