<?xml version="1.0" standalone="no"?><!DOCTYPE svg PUBLIC "-//W3C//DTD SVG 1.1//EN" "http://www.w3.org/Graphics/SVG/1.1/DTD/svg11.dtd"><svg t="1493486044436" class="icon" style="" viewBox="0 0 1024 1024" version="1.1" xmlns="http://www.w3.org/2000/svg" p-id="3882" xmlns:xlink="http://www.w3.org/1999/xlink" width="200" height="200"><defs><style type="text/css"></style></defs><path d="M991.901413 215.552275c0-27.241234-22.433958-49.675192-49.675192-49.675192H801.212773v46.470341h-32.048511v-46.470341H257.990513v48.072767h-32.048511v-48.072767h-144.218299c-27.241234 0-49.675192 22.433958-49.675192 49.675192v155.435278h959.852902v-155.435278z" fill="#F2385A" p-id="3883"></path><path d="M32.048511 885.366154c0 27.241234 22.433958 49.675192 49.675192 49.675192h862.104944c27.241234 0 49.675192-22.433958 49.675192-49.675192v-482.33009H32.048511v482.33009z" fill="#FFFFFF" p-id="3884"></path><path d="M943.828647 133.828573H801.212773v-78.518852h-32.048511v78.518852H257.990513v-78.518852h-32.048511v78.518852h-144.218299c-44.867915 0-81.723703 36.855788-81.723703 83.326128v669.813878c0 44.867915 36.855788 81.723703 81.723703 81.723703h860.502518c44.867915 0 81.723703-36.855788 81.723703-81.723703v-669.813878c1.602426-46.470341-35.253362-83.326128-80.121277-83.326128z m49.675192 751.537581c0 27.241234-22.433958 49.675192-49.675192 49.675192H81.723703c-27.241234 0-49.675192-22.433958-49.675192-49.675192v-482.33009h961.455328v482.33009z m-961.455328-669.813879c0-27.241234 22.433958-49.675192 49.675192-49.675192h144.218299v48.072767h32.048511v-48.072767H769.164262v46.470341h32.048511v-46.470341h141.013448c27.241234 0 49.675192 22.433958 49.675192 49.675192v155.435278H32.048511v-155.435278z" fill="" p-id="3885"></path><path d="M644.17507 649.809599h-100.95281l-30.446085-97.747959-30.446086 97.747959h-100.952809l81.723703 60.89217-30.446085 97.747959 80.121277-60.892171 80.121277 60.892171-30.446085-97.747959z" fill="#FAD97F" p-id="3886"></path><path d="M738.718177 616.158662h-171.459534l-54.482468-173.061959-54.482469 173.061959h-171.459533l139.411022 105.760086-54.482468 173.061959 141.013448-105.760086 141.013448 105.760086-54.482469-173.061959 139.411023-105.760086z m-225.942002 131.398895l-80.121277 60.892171 30.446085-97.747959-81.723703-60.89217h100.952809l30.446086-97.747959 30.446085 97.747959h100.95281l-81.723703 60.89217 30.446085 97.747959-80.121277-60.892171z" fill="" p-id="3887"></path><path d="M418.233068 284.456574l24.036383 8.012128c-3.204851 14.42183-9.614553 24.036383-19.229107 30.446085s-19.229107 9.614553-33.650936 9.614553c-16.024255 0-30.446085-6.409702-41.663064-17.626681s-16.024255-27.241234-16.024256-46.470341c0-20.831532 4.807277-36.855788 16.024256-49.675191 11.216979-11.216979 25.638809-17.626681 43.265489-17.626682 16.024255 0 27.241234 4.807277 36.855788 14.42183 6.409702 4.807277 9.614553 12.819404 12.819404 22.433958l-24.036383 8.012128c-1.602426-6.409702-4.807277-11.216979-9.614553-16.024256-4.807277-3.204851-11.216979-6.409702-17.626681-6.409702-9.614553 0-17.626681 3.204851-22.433958 9.614553-6.409702 6.409702-8.012128 17.626681-8.012128 32.048511 0 16.024255 3.204851 27.241234 8.012128 33.650937 6.409702 6.409702 12.819404 9.614553 22.433958 9.614553 6.409702 0 12.819404-1.602426 17.626681-6.409702 4.807277-1.602426 8.012128-8.012128 11.216979-17.626681zM576.873197 330.926915h-27.241235l-11.216978-28.84366H488.739792l-9.614554 28.84366h-27.241234l49.675192-126.591618H528.80043l48.072767 126.591618z m-46.470341-49.675192l-17.626681-48.072767-16.024256 48.072767h33.650937zM591.295027 330.926915v-124.989193H616.933835v104.157661h62.494597v20.831532h-88.133405z" fill="#FFFFFF" p-id="3888"></path></svg>