<?xml version="1.0" standalone="no"?><!DOCTYPE svg PUBLIC "-//W3C//DTD SVG 1.1//EN" "http://www.w3.org/Graphics/SVG/1.1/DTD/svg11.dtd"><svg t="1493514978613" class="icon" style="" viewBox="0 0 1024 1024" version="1.1" xmlns="http://www.w3.org/2000/svg" p-id="2911" xmlns:xlink="http://www.w3.org/1999/xlink" width="200" height="200"><defs><style type="text/css"></style></defs><path d="M850.668501 366.031836c-18.637785-44.065977-45.317164-83.638121-79.295823-117.616778-33.979682-33.979682-73.550802-60.658038-117.616779-79.296847-45.628426-19.299214-94.090966-29.084487-144.039163-29.084487-72.441935 0-142.602653 20.933335-202.897212 60.53722-6.434095 4.225575-8.223847 12.867167-3.997248 19.301262 4.225575 6.435119 12.869215 8.224871 19.301262 3.997249 55.736222-36.60902 120.6055-55.960452 187.593198-55.960453 188.669301 0 342.161998 153.493721 342.161998 342.161998S698.385013 852.234022 509.716736 852.234022 167.553714 698.740301 167.553714 510.071c0-67.234454 19.483514-132.304414 56.343386-188.17374 4.238885-6.42488 2.46654-15.070568-3.958341-19.309454-6.426928-4.239909-15.070568-2.467564-19.309453 3.958341-39.87419 60.437903-60.95087 130.815685-60.95087 203.523829 0 49.948198 9.785272 98.409714 29.084487 144.039164 18.638808 44.065977 45.317164 83.638121 79.296846 117.616779s73.550802 60.659062 117.616779 79.296846c45.62945 19.299214 94.090966 29.084487 144.040188 29.084487s98.409714-9.786296 144.039163-29.084487c44.065977-18.638808 83.638121-45.318188 117.616779-79.296846s60.658038-73.550802 79.295823-117.616779c19.299214-45.628426 29.084487-94.090966 29.084487-144.039164s-9.786296-98.409714-29.084487-144.03814z" fill="#F39E15" p-id="2912"></path><path d="M478.296767 654.967156c3.567216 0 7.133409-1.360744 9.854896-4.081207l197.193146-197.193147c5.441951-5.442974 5.441951-14.267842 0-19.710816-5.442974-5.442974-14.26989-5.442974-19.710816 0L478.297791 621.318188l-90.485866-90.485865c-5.442974-5.441951-14.267842-5.441951-19.710816 0-5.442974 5.442974-5.442974 14.268866 0 19.71184l100.340762 100.340762a13.892076 13.892076 0 0 0 9.854896 4.082231z" fill="#F39E15" p-id="2913"></path></svg>