<?xml version="1.0" standalone="no"?><!DOCTYPE svg PUBLIC "-//W3C//DTD SVG 1.1//EN" "http://www.w3.org/Graphics/SVG/1.1/DTD/svg11.dtd"><svg t="1493485624900" class="icon" style="" viewBox="0 0 1024 1024" version="1.1" xmlns="http://www.w3.org/2000/svg" p-id="6784" xmlns:xlink="http://www.w3.org/1999/xlink" width="200" height="200"><defs><style type="text/css"></style></defs><path d="M845.42439 284.721951v-23.726829c0-59.941463-48.702439-108.643902-107.395122-108.643902h-424.585366L143.609756 322.185366v535.726829c0 59.941463 48.702439 108.643902 107.395122 108.643903H736.780488c59.941463 0 107.395122-48.702439 107.395122-108.643903V284.721951z" fill="#E3EFFF" p-id="6785"></path><path d="M845.42439 217.287805c7.492683 0 12.487805-4.995122 12.487805-12.487805v-26.22439c0-73.678049-59.941463-133.619512-133.619512-133.619512H249.756098c-3.746341 0-6.243902 1.24878-8.741464 3.746341L52.44878 238.517073c-2.497561 2.497561-3.746341 4.995122-3.746341 8.741464v599.414634c0 73.678049 59.941463 133.619512 133.619512 133.619512h543.219512c73.678049 0 133.619512-59.941463 133.619513-133.619512V645.619512c0-7.492683-4.995122-12.487805-12.487805-12.487805s-12.487805 4.995122-12.487805 12.487805v201.053659c0 59.941463-48.702439 108.643902-108.643903 108.643902H182.321951c-59.941463 0-108.643902-48.702439-108.643902-108.643902V274.731707h149.853658c29.970732 0 54.946341-24.97561 54.946342-54.946341v-149.853659h447.063414c59.941463 0 108.643902 48.702439 108.643903 108.643903v26.22439c-1.24878 6.243902 4.995122 12.487805 11.239024 12.487805zM223.531707 249.756098H76.17561L253.502439 71.180488v148.604878c0 16.234146-13.736585 29.970732-29.970732 29.970732z" fill="#25232E" p-id="6786"></path><path d="M920.35122 379.629268L716.8 670.595122c-4.995122 6.243902-11.239024 12.487805-17.482927 16.234146l-93.658536 49.95122c-2.497561 1.24878-6.243902-1.24878-4.995122-3.746342l16.234146-104.897561c1.24878-7.492683 3.746341-14.985366 8.741463-22.478048l203.55122-289.717074M941.580488 349.658537l28.721951-41.209757c8.741463-12.487805 4.995122-28.721951-6.243902-36.214634L915.356098 237.268293c-12.487805-8.741463-28.721951-4.995122-36.214635 6.243902L849.170732 284.721951l92.409756 64.936586z" fill="#25232E" p-id="6787"></path></svg>